<?xml version="1.0" encoding="UTF-8"?>
<svg id="Layer_1" data-name="Layer 1" xmlns="http://www.w3.org/2000/svg" viewBox="0 0 500 500">
  <defs>
    <style>
      .cls-1 {
        fill: #faa17d;
        stroke: #3e48ad;
        stroke-miterlimit: 10;
        stroke-width: 2px;
      }
    </style>
  </defs>
  <path class="cls-1" d="M171.87,227.31c12.55,8.16,21.28,8.27,31.93,.31-1.39-.19-2.35-.3-3.3-.44-3.92-.59-7.87-.99-11.74-1.83-5.12-1.11-9.16-3.83-11.91-8.51-.7-1.18-2.5-2.22-3.9-2.38-6.63-.74-13.29-1.29-19.95-1.6-2.74-.13-5.51,.52-8.27,.86-.86,.1-1.7,.46-2.56,.48-3.36,.09-5.52-2.64-3.95-5.5,2.56-4.64,5.09-9.48,8.6-13.37,3.81-4.23,9.35-5.15,15.01-4.16,.83,.15,1.64,.43,2.63,.69,.14-.6,.35-1.05,.33-1.48-.67-11.81,10.94-15.82,18.8-13.13,2.73,.93,5.47,2.61,7.49,4.66,4.26,4.33,8.7,7.96,14.56,10.16,5.68,2.13,9.22,7.23,12.44,12.2,1.54,2.37,.33,6-2.24,8.02-2.75,2.16-5.87,3.33-9.45,2.84-4.8-.65-9.51-.9-14.38,.27-2.05,.49-4.82-.87-6.92-2-2.37-1.28-4.09-1.39-5.69,.85,2.64,5.33,7.28,7.93,13.59,7.41,8.39-.69,16.75-1.73,25.14-2.21,5.29-.3,10.63,.02,15.93,.29,5.11,.26,9.39,2.86,13.54,5.54,1.86,1.21,3.33,1.18,5.23,.03,7.1-4.32,14.31-8.44,21.44-12.71,1.23-.74,2.37-1.72,3.33-2.78,1.58-1.74,1.89-3.93-.08-5.37-9.51-6.94-18.69-14.56-30.65-17.08-3.02-.64-6.15-.79-9.15-1.49-4.87-1.13-7.69-4.09-9.01-9.48,6.02,9.11,15.37,6.46,24.01,8.31-1.36-4.19-2.4-7.96-3.83-11.58-.83-2.11-8.17-4.56-10.32-3.66-7.52,3.15-14.36,1.94-20.61-3.11-.22,.06-.5,.05-.56,.16-2.09,4.13-5.18,5.5-9.52,3.53-.17-.08-.38-.16-.56-.15-4.95,.34-9.92,.45-14.82,1.15-2.35,.33-3.93-.49-4.99-2.02-.73-1.06-1.08-3.05-.58-4.17,2.12-4.78,4.06-9.74,8.85-12.76,1.51-.95,2.76-2.44,3.88-3.88,3.58-4.63,8.52-7.27,13.77-9.3,2.23-.86,4.84-.75,7.66-1.14-.24-.99-.55-2.43-.92-3.85-1.7-6.4-.33-12.01,4.82-16.23,5.21-4.27,11.03-4.85,17.02-1.49,2.14,1.2,4.13,1.12,6.33,.08,10.95-5.17,21.19-2.22,27.64,7.95,1.23,1.94,2.66,3.17,5.05,3.34,5.62,.4,9.87,3.1,12.67,8.01,1.1,1.93,2.65,2.77,4.95,2.88,8.2,.4,11.76,3.07,14.1,10.84,.72,2.38,2.26,2.19,3.93,2.4,9.76,1.22,14.21,10.88,8.26,18.32-1.33,1.66-3.67,3.19-5.72,3.46-6.17,.83-12.45,1.11-17.53-3.77-6.65,4.26-13.15,3.74-19.99,.61-2.45-1.12-5.68-1.13-8.47-.83-4.73,.51-9.22,.5-13.61-1.62-.7-.34-1.9,0-2.7,.37-.75,.34-1.31,1.12-1.9,1.76-3.35,3.58-3.4,6.05,.21,9.43,2.39,2.24,4.95,4.38,7.7,6.13,8.33,5.28,16.76,10.39,25.23,15.44,.9,.54,2.4,.57,3.45,.26,2.86-.87,5.62-2.07,8.43-3.09,5.97-2.16,10.5-5.51,10.4-13.12,1.97,4.2,1.59,7.94-1.56,10.79-2.84,2.57-6.04,4.86-9.39,6.7-4.31,2.37-7.67,5.42-9.91,9.82-2.7,5.31-6.98,9.23-11.8,12.57-3.1,2.15-6.34,4.08-9.46,6.21-1.59,1.08-3.19,2.23-4.52,3.6-3.53,3.62-3.45,7.56,.45,10.78,2.21,1.82,4.78,3.3,7.37,4.54,6.98,3.33,14.07,6.42,21.08,9.7,1.49,.7,2.51,.69,3.85-.46,3.56-3.04,7.87-2.88,12.15-2.19,4.2,.67,8.35,1.67,12.55,2.32,7.73,1.2,15.68-3.15,18.91-10.07,.9-1.93,.81-3.24-1.29-4.18-.96-.43-1.85-1.05-2.72-1.67-3.25-2.33-6.06-3.72-10.5-1.39-3.18,1.67-7.73,1.05-11.64,.9-4.83-.18-9.48-.75-14.24,1.27-2.35,1-5.56,.56-8.24,.04-4.13-.79-5.53-4.76-3.15-8.32,3.01-4.49,6.77-8.58,9.13-13.37,3.13-6.35,8.81-8.22,14.6-10.35,2.26-.83,4.56-2.36,6.78-2.26,2.21,.1,4.35,1.84,7.02,3.1,.11-1.68,.32-3.15,.29-4.63-.12-5.78,2.2-10.09,7.47-12.69,2.43-1.2,4.84-2.43,7.31-3.53,7.67-3.44,15-1.48,20.67,4.74,4.35,4.77,9.27,9.02,13.99,13.44,.5,.47,1.37,.67,2.09,.74,9.42,.95,12.76,3.8,14.3,12.86,.45,2.63,1.62,4.35,3.71,5.85,5.56,4.01,5.23,11.24-.86,14.49-1.6,.85-4.14,.57-6.04,.06-2.65-.7-4.92-1.39-7.71,0-3.15,1.56-6.62,.93-9.86-.43-.98-.41-1.91-.95-2.9-1.32-5.33-1.99-6.81-1.25-8.28,4.06-3.64,13.11-12.99,19.74-25.73,22.06-5.29,.97-10.78,.77-16.15,1.41-3.02,.36-6.21,.84-8.88,2.15-4.07,1.99-5.43,6.09-5.94,10.38-.63,5.26-1.95,10.26-5.18,14.57-2.68,3.58-6.17,6.1-10.34,7.68-6.6,2.5-13.31,4.73-19.77,7.55-4.21,1.84-8.46,4.03-11.98,6.92-10.14,8.35-7.69,21.86,4.57,26.49,6.48,2.45,13.19,3.83,20.12,3.87,21.67,.12,43.34,.2,65.01,.29,1.63,0,3.26,0,5.15,0,.24,4.12-1.27,7.31-3.53,10.07-2.75,3.36-5.83,6.47-8.71,9.73-.78,.88-1.36,1.93-2.19,3.14-9.18,0-18.66,0-28.13,0-45.47,0-90.95,0-136.42,.06-3.09,0-5.46-.34-6.26-4.01-.26-1.21-1.76-2.22-2.85-3.15-4.04-3.47-7.35-7.42-8.75-12.69-.24-.91-.37-1.85-.62-3.14,3.06,0,5.85,0,8.63,0,7.26-.03,14.51-.05,21.77-.1,8.33-.06,15.5-7.09,15.9-15.5,.14-2.89,.17-5.82,.64-8.67,1.97-11.75,9.22-19.49,19.36-24.92,2.51-1.35,5.09-2.57,7.59-4.28-14.18-2.5-27.71-7.84-42.37-8.04,1.83-.46,3.65-.93,5.98-1.51-2.53-3.53-4.79-6.97-7.39-10.12-.68-.82-2.45-1.05-3.71-1.02-3.76,.09-7.52,.36-11.26,.73-1.7,.17-3.4,.62-5.04,1.12-2.95,.9-5.09-.52-5.01-3.61,.04-1.42,.27-2.95,.85-4.23,1.43-3.15,2.89-6.33,4.78-9.21,.86-1.31,2.71-2,4.17-2.88,2.35-1.41,4.9-2.54,7.09-4.15,2.09-1.53,3.75-3.63,5.75-5.3,5.69-4.76,12.13-4.32,16.78,1.5,1.93,2.41,3.01,5.5,4.55,8.4,3.02-2.98,6.13-1.28,9.63,.45,7.04,3.48,10.43,9.35,12.41,17.26-2.53,.52-4.95,1.54-7.3,1.39-5.57-.36-11.11-1.27-16.66-1.95-.75-.09-1.86-.47-2.2-.12-3.3,3.41-6.95,2.6-11.37,.71,1.93,4.2,4.41,6.95,8.36,7.43,5.84,.71,11.74,1.2,17.61,1.2,10.87,0,21.43,.97,31.18,6.37,1.14,.63,2.85,.71,4.19,.46,8.55-1.59,17.08-3.34,25.61-5.05,3.97-.8,7.15-2.54,7.78-7.03,.62-4.43-1.58-7.46-5.17-9.56-7.17-4.21-14.39-8.34-21.64-12.41-5.85-3.28-9.33-8.05-10.65-14.71-1.94-9.77-8.62-15.36-18.56-16.22-7.3-.63-13.96,1.4-20.38,4.6-6.54,3.26-13.35,5.13-20.73,4.12-5.27-.72-9.69-2.84-12.88-7.99Z"/>
</svg>