<?xml version="1.0" encoding="UTF-8"?>
<svg id="Layer_2" data-name="Layer 2" xmlns="http://www.w3.org/2000/svg" viewBox="0 0 500 500">
  <defs>
    <style>
      .cls-1 {
        fill: #fff;
      }

      .cls-1, .cls-2, .cls-3 {
        stroke: #3e48ad;
        stroke-miterlimit: 10;
        stroke-width: 2px;
      }

      .cls-2 {
        fill: #3e48ad;
      }

      .cls-3 {
        fill: #faa17d;
      }
    </style>
  </defs>
  <path class="cls-3" d="M238.63,120.36c66.63-.03,120.8,53.96,121.32,120.45,.53,67.58-54.26,122.57-121.59,122.43-67.18-.14-121.35-54.42-121.29-121.58,.05-67.11,54.42-121.37,121.56-121.3Zm-105.97,77.07c25.12,10.42,49.82,20.65,74.49,30.88-4.92,13.54-3.34,25.97,6.43,36.55,9.82,10.63,22.14,13.16,36.03,9.29,9.13,25.11,18.27,50.23,27.43,75.42,19.35-7.1,35.52-18.37,48.81-33.93-20.43-17.46-40.71-34.81-61.04-52.19,.79-1.07,1.53-2.07,2.3-3.11,22.75,14.19,45.41,28.32,68.36,42.63,2.95-5.67,5.82-11.17,8.75-16.8-25.04-10.38-49.73-20.62-74.35-30.83,4.9-13.59,3.28-26.02-6.52-36.58-9.84-10.6-22.18-13.08-36.02-9.18-9.15-25.15-18.29-50.28-27.48-75.55-19.31,7.07-35.5,18.34-48.81,33.93,20.49,17.52,40.81,34.89,61.15,52.29-.83,1.1-1.56,2.09-2.31,3.08-22.78-14.21-45.45-28.35-68.46-42.69-2.93,5.61-5.8,11.11-8.77,16.79Z"/>
  <path class="cls-1" d="M132.65,197.43c2.97-5.68,5.84-11.19,8.77-16.79,23,14.34,45.68,28.48,68.46,42.69,.74-.99,1.48-1.98,2.31-3.08-20.34-17.39-40.66-34.76-61.15-52.29,13.31-15.58,29.5-26.86,48.81-33.93,9.19,25.26,18.33,50.39,27.48,75.55,13.84-3.89,26.17-1.42,36.02,9.18,9.81,10.56,11.43,22.98,6.52,36.58,24.63,10.21,49.32,20.45,74.35,30.83-2.93,5.63-5.8,11.14-8.75,16.8-22.95-14.31-45.61-28.44-68.36-42.63-.77,1.04-1.51,2.04-2.3,3.11,20.33,17.38,40.61,34.72,61.04,52.19-13.3,15.56-29.46,26.83-48.81,33.93-9.16-25.19-18.3-50.31-27.43-75.42-13.89,3.87-26.21,1.35-36.03-9.29-9.78-10.58-11.36-23.01-6.43-36.55-24.67-10.23-49.37-20.47-74.49-30.88Zm105.82,72.91c15.77,.02,28.51-12.74,28.52-28.54,0-15.65-12.8-28.45-28.49-28.46-15.68-.01-28.51,12.78-28.52,28.43-.01,15.8,12.71,28.56,28.49,28.58Z"/>
  <path class="cls-2" d="M238.47,270.34c-15.78-.02-28.5-12.77-28.49-28.58,.01-15.65,12.84-28.44,28.52-28.43,15.68,.01,28.49,12.81,28.49,28.46,0,15.8-12.75,28.56-28.52,28.54Zm.03-11.93c9.23-.02,16.56-7.4,16.53-16.65-.03-9.13-7.42-16.49-16.57-16.48-9.21,.01-16.56,7.42-16.53,16.65,.03,9.14,7.43,16.49,16.57,16.48Z"/>
  <path class="cls-1" d="M238.51,258.41c-9.14,.02-16.54-7.34-16.57-16.48-.03-9.24,7.32-16.64,16.53-16.65,9.14-.01,16.54,7.35,16.57,16.48,.03,9.25-7.3,16.63-16.53,16.65Z"/>
</svg>