<?xml version="1.0" encoding="UTF-8"?>
<svg id="Layer_1" data-name="Layer 1" xmlns="http://www.w3.org/2000/svg" viewBox="0 0 500 500">
  <defs>
    <style>
      .cls-1 {
        fill: #faa17d;
      }

      .cls-2 {
        fill: #fff;
        stroke: #3e48ad;
        stroke-miterlimit: 10;
        stroke-width: 2px;
      }
    </style>
  </defs>
  <path class="cls-2" d="M119.71,263.72c.61-2.24,1.32-4.47,1.81-6.73,3.71-16.97,13.26-30.33,27.27-39.83,26.68-18.11,53.53-36.06,81.17-52.64,14.81-8.88,32.03-10.74,49.14-6.39,24.03,6.1,37.9,22.15,41.32,46.91,2.27,16.46,1.4,19.66-11.42,40.99,2.69,.15,4.96,.37,7.24,.38,28.84,.02,57.68-.04,86.52,.09,3.37,.01,6.73,1.04,10.09,1.6v3.91c-1.52,1.48-2.98,3.02-4.56,4.43-29.43,26.35-58.84,52.72-88.36,78.98-6.57,5.84-14.47,8.43-23.33,8.42-37.12-.08-74.25,.13-111.37-.11-28.32-.18-48.62-14.13-59.03-40.65-2.98-7.58-4.37-15.79-6.48-23.72,0-5.21,0-10.42,0-15.63Zm263.73-3.3c-3.71-.64-5.36-1.17-7.01-1.17-26.7-.04-53.41-.17-80.11,.16-3.83,.05-8.3,1.56-11.34,3.88-19.32,14.74-38.47,29.72-57.38,44.99-10.96,8.85-23.03,13.44-37.15,12.95-18.86-.65-34.43-11.68-40.73-29.17-6.04-16.77-.61-37.76,12.77-49.34,11.93-10.33,34.09-10.3,45.16,.05,12.08,11.3,13,30.09,2.14,43.82-9.02,11.4-26.9,13.03-36.34,3.39-3.19-3.26-4.54-7.38-.98-10.12,2.02-1.56,7.29-1.22,9.57,.4,4.07,2.89,8.24,4.45,11.86,1.6,3.41-2.68,6.93-6.92,7.64-10.97,1.63-9.32-6.88-18.27-16.45-18.87-12.07-.75-23.45,8.94-24.8,21.12-1.96,17.61,11.48,33.65,29.21,34.88,20.86,1.45,38.48-12.51,42.77-33.88,5.34-26.63-15.27-55.46-40.87-57.18-33.61-2.26-58.66,21.66-59.76,57.05-1.05,33.76,21.43,57.08,55.14,57.11,34.74,.04,69.47-.06,104.21,.05,11.18,.03,20.77-3.52,29.02-11.05,18.91-17.28,37.92-34.44,56.82-51.74,2.11-1.94,3.72-4.43,6.62-7.96Z"/>
  <path class="cls-1" d="M383.44,260.42c-2.91,3.53-4.51,6.02-6.62,7.96-18.89,17.3-37.91,34.46-56.82,51.74-8.25,7.54-17.84,11.09-29.02,11.05-34.74-.11-69.47-.01-104.21-.05-33.71-.03-56.19-23.35-55.14-57.11,1.1-35.39,26.15-59.31,59.76-57.05,25.61,1.72,46.21,30.56,40.87,57.18-4.29,21.37-21.91,35.33-42.77,33.88-17.73-1.23-31.16-17.27-29.21-34.88,1.35-12.18,12.73-21.87,24.8-21.12,9.57,.59,18.08,9.55,16.45,18.87-.71,4.04-4.23,8.29-7.64,10.97-3.62,2.85-7.79,1.29-11.86-1.6-2.28-1.62-7.55-1.96-9.57-.4-3.56,2.74-2.21,6.86,.98,10.12,9.44,9.64,27.33,8.02,36.34-3.39,10.86-13.73,9.94-32.52-2.14-43.82-11.07-10.35-33.23-10.38-45.16-.05-13.38,11.58-18.81,32.57-12.77,49.34,6.3,17.49,21.88,28.51,40.73,29.17,14.12,.49,26.19-4.11,37.15-12.95,18.91-15.27,38.06-30.25,57.38-44.99,3.04-2.32,7.51-3.83,11.34-3.88,26.7-.34,53.41-.21,80.11-.16,1.65,0,3.29,.53,7.01,1.17Z"/>
</svg>