<?xml version="1.0" encoding="UTF-8"?>
<svg xmlns="http://www.w3.org/2000/svg" viewBox="0 0 500 500">
  <defs>
    <style>
      .cls-1 {
        fill: #fff;
      }

      .cls-1, .cls-2, .cls-3 {
        stroke: #3e48ad;
        stroke-miterlimit: 10;
      }

      .cls-2 {
        fill: #3e48ad;
      }

      .cls-3 {
        fill: #faa17d;
      }
    </style>
  </defs>
  <g id="Layer_2" data-name="Layer 2">
    <polygon class="cls-2" points="125 131.65 149.71 125 375 125 375 382.6 362.64 393.06 362.64 131.65 125 131.65"/>
  </g>
  <g id="Layer_1" data-name="Layer 1">
    <g>
      <path class="cls-3" d="M362.15,393.06H125V131.65h237.64v3.72c-.18,1.2-.52,2.4-.52,3.61-.02,47.92-.02,95.85-.01,143.77,0,36.77,.02,73.54,.03,110.32Zm-208.91-38.22l.5,.5c.68-.4,1.37-.77,2.03-1.19,7.72-4.91,15.46-9.78,23.12-14.77,2.5-1.63,5-3.36,7.14-5.4,48.02-45.75,95.99-91.55,143.97-137.34,1.75-1.67,3.5-3.34,5.23-4.99-3.47-3.3-6.9-6.56-10.75-10.22-1.36,1.46-2.7,3.05-4.21,4.49-48.01,45.85-96.05,91.68-144.05,137.55-1.92,1.83-3.67,3.86-5.22,5.99-3.36,4.6-6.54,9.32-9.8,13.99-2.65,3.8-5.3,7.6-7.95,11.4Zm187.13-167.22c3.92-4.01,7.56-7.77,11.26-11.48,.85-.85,.97-1.51,.04-2.38-2.71-2.54-5.41-5.1-8.05-7.7-1.01-1-1.75-.79-2.66,.11-2.65,2.6-5.37,5.13-8.04,7.71-1.14,1.09-2.24,2.23-3.03,3.01,3.4,3.48,6.59,6.75,10.48,10.73Zm-203.83,139.01c4.82-.04,6.86-2.11,6.84-6.96-.02-4.02-2.44-6.14-7-6.12-4.44,.02-6.76,2.21-6.72,6.37,.04,4.6,2.23,6.74,6.88,6.7Zm6.85-120.42c0-4.3-2.25-6.57-6.52-6.57-4.87,0-7.2,2.07-7.22,6.42-.02,4.58,2.25,6.7,7.19,6.69,4.31,0,6.55-2.24,6.55-6.54Zm0,85.6c.02-4.37-2.18-6.71-6.34-6.75-5.01-.05-7.39,2.04-7.4,6.5-.01,4.47,2.23,6.59,7.01,6.61,4.41,.02,6.71-2.16,6.73-6.36Zm0-113.96c0-4.46-2.25-6.71-6.67-6.68-4.89,.03-7.1,2.16-7.07,6.82,.02,4.21,2.35,6.28,7.08,6.29,4.38,0,6.66-2.2,6.66-6.43Zm-6.85,205.74c4.48,.03,6.83-2.11,6.85-6.24,.02-4.54-2.16-6.85-6.48-6.87-4.97-.01-7.25,2.07-7.26,6.64-.01,4.3,2.26,6.43,6.89,6.47Zm6.83-149.02c0-4.52-2.23-6.46-7.38-6.44-4.08,.01-6.3,2.31-6.29,6.51,0,4.36,2.19,6.57,6.49,6.57,5.02,0,7.19-2.01,7.19-6.63Zm0,28.59c-.04-4.67-2.26-6.61-7.52-6.57-4.1,.03-6.22,2.48-6.18,7.14,.03,3.85,2.49,5.97,6.9,5.93,4.63-.04,6.84-2.15,6.8-6.51Zm0-113.94c0-4.56-2.19-6.51-7.31-6.52-4.21,0-6.38,2.28-6.37,6.69,.02,4.17,2.23,6.38,6.42,6.38,5.08,0,7.26-1.96,7.26-6.55Zm-6.84,192.81c-4.49-.06-6.78,2.03-6.83,6.23-.05,4.47,2.06,6.8,6.2,6.83,5.06,.04,7.43-1.89,7.48-6.11,.06-4.83-1.97-6.89-6.84-6.96Z"/>
      <path class="cls-3" d="M362.15,393.06c-.01-36.77-.03-73.54-.03-110.32,0-47.92-.01-95.85,.01-143.77,0-1.2,.34-2.4,.52-3.61,0,85.19,0,170.37-.02,255.56,0,.71-.31,1.42-.48,2.14Z"/>
      <path class="cls-2" d="M153.24,354.84c2.65-3.8,5.3-7.6,7.95-11.4,3.26-4.67,6.44-9.39,9.8-13.99,1.55-2.12,3.31-4.15,5.22-5.99,48-45.87,96.04-91.7,144.05-137.55,1.51-1.44,2.85-3.03,4.21-4.49,3.85,3.66,7.28,6.92,10.75,10.22-1.73,1.65-3.48,3.32-5.23,4.99-47.98,45.79-95.95,91.59-143.97,137.34-2.14,2.03-4.64,3.77-7.14,5.4-7.66,4.99-15.4,9.86-23.12,14.77-.66,.42-1.35,.8-2.03,1.19l-.5-.5Z"/>
      <path class="cls-2" d="M340.37,187.62c-3.89-3.98-7.08-7.25-10.48-10.73,.79-.79,1.89-1.92,3.03-3.01,2.68-2.57,5.39-5.11,8.04-7.71,.92-.9,1.65-1.11,2.66-.11,2.64,2.6,5.34,5.16,8.05,7.7,.93,.87,.81,1.53-.04,2.38-3.69,3.71-7.34,7.47-11.26,11.48Z"/>
      <path class="cls-1" d="M136.54,326.63c-4.65,.03-6.85-2.1-6.88-6.7-.03-4.16,2.28-6.35,6.72-6.37,4.56-.02,6.98,2.1,7,6.12,.02,4.85-2.02,6.93-6.84,6.96Z"/>
      <path class="cls-1" d="M143.38,206.21c0,4.29-2.25,6.53-6.55,6.54-4.94,0-7.21-2.1-7.19-6.69,.02-4.35,2.35-6.43,7.22-6.42,4.27,0,6.52,2.28,6.52,6.57Z"/>
      <path class="cls-1" d="M143.38,291.81c-.02,4.2-2.32,6.37-6.73,6.36-4.77-.02-7.02-2.14-7.01-6.61,.01-4.46,2.39-6.55,7.4-6.5,4.16,.04,6.36,2.38,6.34,6.75Z"/>
      <path class="cls-1" d="M143.38,177.85c0,4.23-2.28,6.43-6.66,6.43-4.73,0-7.06-2.08-7.08-6.29-.02-4.66,2.19-6.79,7.07-6.82,4.41-.02,6.66,2.23,6.67,6.68Z"/>
      <path class="cls-1" d="M136.54,383.59c-4.64-.03-6.91-2.17-6.89-6.47,.02-4.57,2.29-6.65,7.26-6.64,4.32,.01,6.5,2.33,6.48,6.87-.02,4.14-2.37,6.28-6.85,6.24Z"/>
      <path class="cls-1" d="M143.36,234.57c0,4.63-2.17,6.63-7.19,6.63-4.3,0-6.48-2.21-6.49-6.57,0-4.2,2.21-6.5,6.29-6.51,5.15-.02,7.38,1.92,7.38,6.44Z"/>
      <path class="cls-1" d="M143.36,263.17c.04,4.36-2.17,6.47-6.8,6.51-4.41,.04-6.87-2.08-6.9-5.93-.04-4.67,2.08-7.11,6.18-7.14,5.26-.04,7.48,1.9,7.52,6.57Z"/>
      <path class="cls-1" d="M143.36,149.23c0,4.59-2.18,6.56-7.26,6.55-4.18,0-6.4-2.21-6.42-6.38-.02-4.4,2.16-6.69,6.37-6.69,5.12,0,7.3,1.96,7.31,6.52Z"/>
      <path class="cls-1" d="M136.52,342.04c4.87,.07,6.9,2.13,6.84,6.96-.05,4.22-2.41,6.15-7.48,6.11-4.14-.03-6.25-2.37-6.2-6.83,.05-4.2,2.35-6.29,6.83-6.23Z"/>
    </g>
  </g>
</svg>