<?xml version="1.0" encoding="UTF-8"?>
<svg xmlns="http://www.w3.org/2000/svg" viewBox="0 0 500 500">
  <defs>
    <style>
      .cls-1 {
        fill: #faa17d;
      }

      .cls-2 {
        fill: #3e48ad;
      }

      .cls-3 {
        fill: #fff;
        stroke: #3e48ad;
        stroke-miterlimit: 10;
      }
    </style>
  </defs>
  <g id="Layer_2" data-name="Layer 2">
    <path class="cls-2" d="M405.7,117.92c8.54,8.01,16.36,12.75,7.33,22.45,1.04,3.05,1.01,5.21,1.78,7.47-2.6,0-3.51,.12-6.11,.12-.23-.82-.46-1.64-.69-2.46-2.7,2.78-5.4,5.55-7.04,7.24,1.15,3.58,.75,5.86,1.48,8.14h-7.39c-.34-.79,3.83-3.83,3.49-4.61-2.76,2.72-7.77,6.56-9.27,8.04,1.16,3.82,.72,4.96,1.41,7.22-1.94,0,1.44-.03-.49-.02-1.61,0,1.35,.83-.2,1.15-3.98,.81-3.23,.69-7.11,1.86-2.48,.75-14.06,3.06-15.79,4.77-25.17,24.91-45.47,46.03-71.15,71.7,1.8,2.89,7.13,7.33,8.43,9.46,14.43,23.69,10.52,44.38-11.75,60.99-4.28,3.19-8.9,6.01-13.65,8.43-7.68,3.91-11.55,9.57-12.42,18.45-2.1,21.31-9.87,40.16-26.73,54.4-14.34,12.11-48.86,18-66.19,11.52-29.99-11.22-33.16-34.57-44.64-64.5-7.18-18.74-2.65-35.94,10.8-50.64,13.97-15.28,31.88-22.74,52.14-24.52,9.18-.81,15.34-4.66,19.28-12.94,2.14-4.49-5.6-11.01-2.68-15.05,16.16-22.35,47.65-24.37,71.4-10.39,2.43,1.43,4.82,2.93,8.24,5.03,20.97-21.1,40.9-43.26,63.19-62.72,11.22-9.8,13.61-22.56,19.62-34.19,.28-.54-1.41-1.86-1.48-2.86-.13-1.92,.24-3.88,.41-5.82,2.01,.79,4.03,1.58,6.9,2.7,1.71-3.09,11.78-4.13,3.9-12.39-.16-.17,2.47-3.82,2.96-3.64,1.9,.71,3.45,2.33,6.13,4.37,2.15-2.56,4.65-5.53,6.57-7.81-.48-3.15-.88-5.8-1.28-8.45m-145,157.44c-12.71-.03-23.35,10.24-23.53,22.71-.18,12.35,10.39,23.19,22.94,23.53,13.16,.36,23.88-10.23,23.75-23.46-.12-12.86-10.18-22.75-23.16-22.78Zm-27.18,94.24c-15.13-15.17-29.46-29.54-44.2-44.31-1.29,1.58-3.17,3.87-4.43,5.43,14.83,14.95,28.89,29.13,43.46,43.82,1.86-1.78,3.85-3.68,5.17-4.93Z"/>
    <path class="cls-2" d="M233.05,391.31c-1.32,1.25-3.31,3.16-5.17,4.93-14.57-14.69-28.63-28.87-43.46-43.82,1.27-1.55,3.14-3.85,4.43-5.43,14.74,14.78,29.07,29.14,44.2,44.31Z"/>
  </g>
  <g id="Layer_1" data-name="Layer 1">
    <path class="cls-1" d="M281.89,255.59c1.8,2.89,3.15,4.99,4.44,7.11,14.43,23.69,10.52,44.38-11.75,60.99-4.28,3.19-8.9,6.01-13.65,8.43-7.68,3.91-11.55,9.57-12.42,18.45-2.1,21.31-9.87,40.16-26.73,54.4-14.34,12.11-30.83,15.75-48.16,9.27-29.99-11.22-51.2-32.32-62.67-62.25-7.18-18.74-2.65-35.94,10.8-50.64,13.97-15.28,31.88-22.74,52.14-24.52,9.18-.81,15.34-4.66,19.28-12.94,2.14-4.49,4.94-8.72,7.86-12.76,16.16-22.35,37.11-26.66,60.86-12.69,2.43,1.43,4.82,2.93,8.24,5.03,20.97-21.1,40.9-43.26,63.19-62.72,11.22-9.8,13.61-22.56,19.62-34.19,.28-.54-1.41-1.86-1.48-2.86-.13-1.92,.24-3.88,.41-5.82,2.01,.79,4.03,1.58,6.9,2.7,1.71-3.09,11.78-4.13,3.9-12.39-.16-.17,2.47-3.82,2.96-3.64,1.9,.71,3.45,2.33,6.13,4.37,2.15-2.56,4.65-5.53,6.57-7.81-.48-3.15-.88-5.8-1.28-8.45,2.22,.49,4.45,.97,8,1.75,10.66-8.62,10.26-8.2,25.15,5.77,8.54,8.01,7.78,14.3,.33,20.21,1.04,3.05,1.81,5.31,2.58,7.58h-7.79c-.23-.82-.46-1.64-.69-2.46-2.7,2.78-5.4,5.55-7.04,7.24,1.15,3.58,1.88,5.86,2.61,8.14h-7.39c-.34-.79-.68-1.57-1.02-2.36-2.76,2.72-5.52,5.43-7.02,6.91,1.16,3.82,1.85,6.08,2.54,8.34-1.94,0-3.87-.02-5.81,0-1.61,0-3.27-.2-4.82,.12-3.98,.81-7.95,1.72-11.83,2.88-2.48,.75-5.37,1.45-7.1,3.16-25.17,24.91-50.17,49.99-75.85,75.66Zm-49.84,14.5c-12.71-.03-23.35,10.24-23.53,22.71-.18,12.35,10.39,23.19,22.94,23.53,13.16,.36,23.88-10.23,23.75-23.46-.12-12.86-10.18-22.75-23.16-22.78Zm-27.18,94.24c-15.13-15.17-29.46-29.54-44.2-44.31-1.29,1.58-3.17,3.87-4.43,5.43,14.83,14.95,28.89,29.13,43.46,43.82,1.86-1.78,3.85-3.68,5.17-4.93Z"/>
    <path class="cls-3" d="M232.05,270.09c12.98,.03,23.03,9.92,23.16,22.78,.13,13.23-10.59,23.82-23.75,23.46-12.55-.34-23.12-11.18-22.94-23.53,.18-12.47,10.82-22.74,23.53-22.71Z"/>
    <path class="cls-3" d="M204.87,364.33c-1.32,1.25-3.31,3.16-5.17,4.93-14.57-14.69-28.63-28.87-43.46-43.82,1.27-1.55,3.14-3.85,4.43-5.43,14.74,14.78,29.07,29.14,44.2,44.31Z"/>
  </g>
</svg>