<?xml version="1.0" encoding="UTF-8"?>
<svg xmlns="http://www.w3.org/2000/svg" viewBox="0 0 500 500">
  <defs>
    <style>
      .cls-1 {
        fill: #3e48ad;
      }

      .cls-2 {
        fill: #faa17d;
        stroke: #3e48ad;
        stroke-miterlimit: 10;
        stroke-width: 2px;
      }
    </style>
  </defs>
  <g id="Layer_2" data-name="Layer 2">
    <path class="cls-1" d="M354.29,288.57c10.9-22.18,13.93-43.17,11.77-64.93-1.87-18.91-8.08-36.47-18.91-52.16-1.73-2.51-5.29-3.76-8.04-5.54-2.52-1.63-5.5-2.79-7.58-4.85-44.9-44.44-104.83-44.34-149.38,.33-1.64,1.64-3.69,4.08-5.55,4.08-7.79,.02-10.26,5.91-13.21,11.12-20,35.42-21.22,71.77-5.3,109.67,3.87-4.62,6.96-9.02,10.79-12.64,2.67-2.52,6.42-3.86,9.57-5.91,2.93-1.91,5.43-5.05,8.59-5.93,7.27-2.02,14.86-4.19,22.26-4,6.07,.16,5.99,6.76,6.45,11.79,2.57,28.05,5.18,56.09,7.88,84.13,.99,10.25-1.05,13.11-11.01,13.74-6.77,.42-14.37,3.56-18.99-4.85-.22-.41-1.31-.41-2.01-.47-20.59-1.55-29.28-15.79-35.39-32.96-1.47-4.14-3.22-8.37-5.73-11.93-33.98-47.99-34.18-112.84-.5-161.36,1.71-2.47,1.87-5.98,2.99-8.92,1.22-3.2,2.05-6.91,4.22-9.35,51.82-58.33,146.54-58.7,198.76-.71,2.57,2.85,3.22,7.44,4.72,11.24,.91,2.31,1.28,4.96,2.65,6.93,34.91,50.14,34.32,114.82-1.46,164.2-2.15,2.97-3.66,6.55-4.8,10.06-4.42,13.56-11.28,25.1-25.11,30.85-5.81,2.42-11.89,3.55-17.76,6.66-5.35,2.84-14.14,.16-21.04-1.57-1.86-.47-3.58-6.39-3.33-9.65,1.76-22.89,4.05-45.73,6.19-68.59,.66-7.07,1.42-14.13,2.05-21.2,.58-6.48,4.18-9.3,10.47-8.61,5.14,.57,12.27-.39,14.98,2.56,9.37,10.23,26.69,10.77,30.75,28.76Z"/>
  </g>
  <g id="Layer_1" data-name="Layer 1">
    <path class="cls-2" d="M347.29,296.57c10.9-22.18,13.93-43.17,11.77-64.93-1.87-18.91-8.08-36.47-18.91-52.16-1.73-2.51-5.29-3.76-8.04-5.54-2.52-1.63-5.5-2.79-7.58-4.85-44.9-44.44-104.83-44.34-149.38,.33-1.64,1.64-3.69,4.08-5.55,4.08-7.79,.02-10.26,5.91-13.21,11.12-20,35.42-21.22,71.77-5.3,109.67,3.87-4.62,6.96-9.02,10.79-12.64,2.67-2.52,6.42-3.86,9.57-5.91,2.93-1.91,5.43-5.05,8.59-5.93,7.27-2.02,14.86-4.19,22.26-4,6.07,.16,5.99,6.76,6.45,11.79,2.57,28.05,5.18,56.09,7.88,84.13,.99,10.25-1.05,13.11-11.01,13.74-6.77,.42-14.37,3.56-18.99-4.85-.22-.41-1.31-.41-2.01-.47-20.59-1.55-29.28-15.79-35.39-32.96-1.47-4.14-3.22-8.37-5.73-11.93-33.98-47.99-34.18-112.84-.5-161.36,1.71-2.47,1.87-5.98,2.99-8.92,1.22-3.2,2.05-6.91,4.22-9.35,51.82-58.33,146.54-58.7,198.76-.71,2.57,2.85,3.22,7.44,4.72,11.24,.91,2.31,1.28,4.96,2.65,6.93,34.91,50.14,34.32,114.82-1.46,164.2-2.15,2.97-3.66,6.55-4.8,10.06-4.42,13.56-11.28,25.1-25.11,30.85-5.81,2.42-11.89,3.55-17.76,6.66-5.35,2.84-14.14,.16-21.04-1.57-1.86-.47-3.58-6.39-3.33-9.65,1.76-22.89,4.05-45.73,6.19-68.59,.66-7.07,1.42-14.13,2.05-21.2,.58-6.48,4.18-9.3,10.47-8.61,5.14,.57,12.27-.39,14.98,2.56,9.37,10.23,26.69,10.77,30.75,28.76Z"/>
  </g>
</svg>