<?xml version="1.0" encoding="UTF-8"?>
<svg xmlns="http://www.w3.org/2000/svg" viewBox="0 0 500 500">
  <defs>
    <style>
      .cls-1 {
        fill: #fff;
      }

      .cls-2 {
        fill: #3e48ad;
      }

      .cls-3 {
        fill: #faa17d;
        stroke: #3e48ad;
        stroke-miterlimit: 10;
        stroke-width: 2px;
      }
    </style>
  </defs>
  <g id="Layer_2" data-name="Layer 2">
    <polygon class="cls-2" points="148.46 125.81 209.38 85.19 351.54 85.19 351.54 349.19 310.92 389.81 310.92 125.81 148.46 125.81"/>
  </g>
  <g id="Layer_1" data-name="Layer 1">
    <path class="cls-1" d="M230.08,371.42c-32.45,.31-59.28-26.18-59.73-58.98-.45-32.49,26.01-59.79,58.47-60.33,32.77-.54,60.24,26.6,60.32,59.59,.08,32.62-26.41,59.41-59.05,59.72Zm47.62-60.05c-.21-27-21.75-48.12-48.7-47.75-26.95,.37-47.66,21.92-47.25,49.19,.4,26.48,21.61,47.28,48.15,47.21,26.88-.07,48.01-21.57,47.8-48.65Z"/>
    <path class="cls-1" d="M229.97,217.8c-18.99,.09-34.17-15.17-33.98-34.17,.18-18.57,15.1-33.66,33.46-33.86,18.62-.2,34.15,15.51,34,34.39-.15,18.63-15,33.55-33.47,33.64Zm.07-10.24c13.02-.21,23.53-10.83,23.5-23.75-.02-12.72-10.89-23.65-23.62-23.73-13.2-.09-24.36,11.23-24.04,24.39,.31,12.84,11.25,23.3,24.15,23.09Z"/>
    <path class="cls-2" d="M277.7,311.37c.21,27.08-20.92,48.58-47.8,48.65-26.54,.07-47.75-20.73-48.15-47.21-.41-27.26,20.3-48.82,47.25-49.19,26.94-.37,48.48,20.76,48.7,47.75Zm-47.82-16.05c-9.35-.07-16.57,7.17-16.54,16.61,.02,9.42,7.31,16.56,16.73,16.37,8.9-.18,15.8-7.09,16.02-16.05,.23-9.39-6.92-16.86-16.21-16.93Z"/>
    <path class="cls-2" d="M230.04,207.55c-12.9,.2-23.84-10.25-24.15-23.09-.32-13.16,10.83-24.48,24.04-24.39,12.72,.09,23.59,11.01,23.62,23.73,.02,12.92-10.49,23.55-23.5,23.75Z"/>
    <path class="cls-1" d="M229.88,295.32c9.29,.07,16.44,7.54,16.21,16.93-.22,8.96-7.12,15.87-16.02,16.05-9.42,.19-16.7-6.95-16.73-16.37-.02-9.44,7.19-16.68,16.54-16.61Z"/>
    <path class="cls-3" d="M310.92,125.81H148.46v18.86h.03c-.04,75.43-.04,150.86,0,226.29h-.03v18.86h162.46v-18.86h-.03c.03-37.36,.01-74.72,.02-112.09,0-38.07,.02-76.13,0-114.2h.01v-18.86Zm-47.48,58.35c-.15,18.63-15,33.55-33.47,33.64-18.99,.09-34.17-15.17-33.98-34.17,.18-18.57,15.1-33.66,33.46-33.86,18.62-.2,34.15,15.51,34,34.39Zm-41.19,186.8c-28.83-3.61-51.49-28.39-51.91-58.51-.45-32.49,26.01-59.79,58.47-60.33,32.77-.54,60.24,26.6,60.32,59.59,.07,30.32-22.81,55.59-52.25,59.25h-14.63Z"/>
  </g>
</svg>