<?xml version="1.0" encoding="UTF-8"?>
<svg id="Layer_1" data-name="Layer 1" xmlns="http://www.w3.org/2000/svg" viewBox="0 0 500 500">
  <defs>
    <style>
      .cls-1, .cls-2 {
        fill: #fff;
      }

      .cls-2, .cls-3 {
        stroke: #3e48ad;
        stroke-miterlimit: 10;
        stroke-width: 2px;
      }

      .cls-3 {
        fill: #faa17d;
      }
    </style>
  </defs>
  <g>
    <path class="cls-3" d="M363.49,130.82c.62,0,1.24,0,1.87,0,0,.62,.02,1.24,.02,1.87,0,77.57,0,155.14,0,232.72,0,.39,.09,.81-.02,1.16-.31,.96-.72,1.89-1.08,2.83-.94-.42-2.08-.63-2.78-1.3-3.43-3.27-6.8-6.62-10.07-10.04-1.42-1.48-2.44-1.43-3.83,.02-3.22,3.37-6.62,6.58-9.85,9.93-1.25,1.3-2.18,1.36-3.45,.03-2.96-3.09-6.02-6.07-9.05-9.09q-2.75-2.75-5.43-.08c-3.03,3.02-6.1,6-9.05,9.09-1.28,1.34-2.19,1.27-3.44-.02-3.24-3.36-6.65-6.55-9.84-9.94-1.5-1.59-2.51-1.47-3.95,.06-3.04,3.22-6.32,6.21-9.34,9.46-1.57,1.69-2.64,1.87-4.29,.08-3.06-3.31-6.4-6.36-9.5-9.62-1.37-1.44-2.33-1.58-3.77-.05-3.25,3.45-6.71,6.7-10.01,10.11-1.19,1.23-2.06,1.26-3.26,.02-3.36-3.46-6.84-6.79-10.19-10.26-1.26-1.3-2.15-1.34-3.43,0-3.34,3.48-6.83,6.8-10.18,10.26-1.21,1.25-2.08,1.2-3.26-.02-3.36-3.46-6.84-6.79-10.19-10.26-1.27-1.32-2.17-1.29-3.43,.02-3.28,3.42-6.74,6.67-10.01,10.1-1.36,1.43-2.29,1.33-3.6-.04-3.28-3.42-6.73-6.68-10.01-10.1-1.28-1.34-2.18-1.26-3.43,.04-3.23,3.36-6.65,6.54-9.84,9.94-1.51,1.61-2.51,1.46-3.94-.06-3.15-3.33-6.53-6.45-9.67-9.78-1.44-1.52-2.39-1.4-3.77,.06-3.27,3.43-6.64,6.77-10.07,10.05-.69,.66-1.82,.87-2.74,1.29-.29-.91-.83-1.82-.84-2.73-.07-6.84-.04-13.68-.04-20.52,0-71.74,.01-143.49,.02-215.23,.78,0,1.55,0,2.33,0,3.88,4.01,7.8,7.99,11.62,12.06,1.4,1.49,2.44,1.43,3.83-.02,3.22-3.37,6.61-6.57,9.85-9.93,1.25-1.3,2.18-1.36,3.45-.03,3.01,3.14,6.13,6.18,9.21,9.25q2.59,2.58,5.1,.09c3.08-3.07,6.2-6.11,9.21-9.25,1.27-1.33,2.18-1.3,3.44,0,3.29,3.41,6.74,6.67,10.01,10.1,1.35,1.41,2.29,1.34,3.61-.04,3.17-3.31,6.54-6.43,9.67-9.78,1.58-1.69,2.62-1.53,4.12,.07,2.98,3.17,6.12,6.19,9.2,9.26q2.22,2.21,4.37,.08c3.14-3.13,6.33-6.2,9.37-9.42,1.44-1.53,2.44-1.66,3.95-.06,3.14,3.34,6.51,6.46,9.67,9.78,1.37,1.44,2.33,1.59,3.77,.05,3.2-3.39,6.61-6.57,9.84-9.94,1.32-1.38,2.25-1.45,3.6-.04,3.28,3.42,6.72,6.69,10.01,10.1,1.24,1.28,2.13,1.39,3.43,.04,3.33-3.48,6.83-6.8,10.18-10.26,1.19-1.23,2.05-1.27,3.26-.03,3.35,3.46,6.84,6.79,10.18,10.25,1.24,1.28,2.14,1.38,3.43,.03,3.28-3.42,6.73-6.68,10.01-10.1,1.33-1.39,2.26-1.42,3.6-.02,3.33,3.48,6.79,6.83,10.2,10.24,.83,.83,1.61,1.5,2.72,.35,4.16-4.29,8.35-8.55,12.53-12.82Z"/>
    <path class="cls-1" d="M144.72,130.82c0,71.74-.01,143.49-.02,215.23,0,6.84-.03,13.68,.04,20.52,0,.91,.55,1.82,.84,2.73,.93-.42,2.05-.63,2.74-1.29,3.43-3.27,6.8-6.61,10.07-10.05,1.38-1.45,2.33-1.58,3.77-.06,3.15,3.33,6.52,6.45,9.67,9.78,1.44,1.51,2.43,1.67,3.94,.06,3.19-3.4,6.61-6.58,9.84-9.94,1.25-1.3,2.14-1.38,3.43-.04,3.28,3.42,6.73,6.68,10.01,10.1,1.31,1.36,2.24,1.46,3.6,.04,3.27-3.43,6.73-6.68,10.01-10.1,1.26-1.31,2.16-1.34,3.43-.02,3.34,3.47,6.83,6.8,10.19,10.26,1.18,1.22,2.05,1.27,3.26,.02,3.35-3.47,6.84-6.79,10.18-10.26,1.28-1.33,2.17-1.29,3.43,0,3.35,3.47,6.83,6.8,10.19,10.26,1.2,1.24,2.07,1.21,3.26-.02,3.29-3.41,6.75-6.66,10.01-10.11,1.44-1.53,2.4-1.4,3.77,.05,3.11,3.27,6.44,6.31,9.5,9.62,1.65,1.79,2.72,1.62,4.29-.08,3.01-3.24,6.3-6.23,9.34-9.46,1.44-1.53,2.44-1.65,3.95-.06,3.2,3.39,6.61,6.58,9.84,9.94,1.25,1.3,2.16,1.36,3.44,.02,2.95-3.09,6.02-6.07,9.05-9.09q2.68-2.67,5.43,.08c3.03,3.02,6.09,6,9.05,9.09,1.27,1.33,2.2,1.27,3.45-.03,3.24-3.36,6.63-6.56,9.85-9.93,1.39-1.45,2.41-1.5,3.83-.02,3.28,3.42,6.64,6.77,10.07,10.04,.7,.67,1.84,.88,2.78,1.3,.37-.94,.77-1.87,1.08-2.83,.12-.35,.02-.77,.02-1.16,0-77.57,0-155.14,0-232.72,0-.62-.01-1.24-.02-1.87h9.33v239.3c-79.77,0-159.53,0-239.3,0,0-79.77,0-159.53,0-239.3,3.11,0,6.22,0,9.33,0Z"/>
    <path class="cls-1" d="M363.49,130.82c-4.18,4.27-8.37,8.53-12.53,12.82-1.12,1.15-1.89,.48-2.72-.35-3.4-3.41-6.86-6.77-10.2-10.24-1.34-1.4-2.27-1.36-3.6,.02-3.28,3.42-6.73,6.68-10.01,10.1-1.29,1.35-2.19,1.25-3.43-.03-3.35-3.46-6.83-6.8-10.18-10.25-1.2-1.24-2.07-1.2-3.26,.03-3.35,3.46-6.85,6.78-10.18,10.26-1.3,1.35-2.19,1.24-3.43-.04-3.29-3.41-6.74-6.67-10.01-10.1-1.35-1.41-2.28-1.34-3.6,.04-3.22,3.37-6.64,6.55-9.84,9.94-1.44,1.53-2.4,1.39-3.77-.05-3.16-3.32-6.53-6.44-9.67-9.78-1.51-1.6-2.51-1.47-3.95,.06-3.04,3.22-6.23,6.3-9.37,9.42q-2.14,2.14-4.37-.08c-3.08-3.07-6.23-6.09-9.2-9.26-1.5-1.59-2.54-1.76-4.12-.07-3.12,3.35-6.5,6.47-9.67,9.78-1.32,1.38-2.25,1.45-3.61,.04-3.28-3.42-6.72-6.69-10.01-10.1-1.26-1.3-2.17-1.34-3.44,0-3.01,3.15-6.13,6.18-9.21,9.25q-2.51,2.5-5.1-.09c-3.08-3.07-6.2-6.11-9.21-9.25-1.28-1.33-2.2-1.27-3.45,.03-3.24,3.36-6.63,6.56-9.85,9.93-1.39,1.45-2.42,1.52-3.83,.02-3.82-4.07-7.74-8.05-11.62-12.06,72.15,0,144.29,0,216.44,0Z"/>
  </g>
  <path class="cls-2" d="M255.16,162.99c48.4-.16,87.93,39.55,87.88,88.01-.05,48.38-39.58,87.91-88.07,87.87-48.41-.04-88.06-39.66-87.89-88.29,.17-48.24,39.64-87.84,88.07-87.59Zm-.17,164.5c42.03,0,76.64-34.29,76.67-75.97,.03-42.63-34.1-77.18-76.26-77.2-42.39-.02-76.92,34.2-76.95,76.24-.02,42.49,34.24,76.92,76.53,76.93Z"/>
  <g>
    <path class="cls-2" d="M255.72,224.6c-10.43-.04-18.42,7.62-19.48,18.68-.77,8.11-4.27,12.22-11.63,13.41-2.31,.38-4.57,.76-4.27,3.71,.33,3.26,2.94,2.95,5.26,2.77,9.33-.71,16.61-8.68,17.15-18.71,.42-7.98,5.83-13.35,13.27-13.17,7.03,.17,12.08,5.55,12.47,13.3,.52,10.2,8.36,18.34,17.95,18.66,2.25,.08,4.29-.21,4.47-2.99,.16-2.51-1.55-3.27-3.74-3.48-3.81-.36-7.41-1.71-9.29-5.05-1.56-2.77-2.47-6.09-2.88-9.27-1.31-10.28-9.25-17.82-19.28-17.86Z"/>
    <path class="cls-2" d="M255.72,224.6c10.03,.04,17.97,7.58,19.28,17.86,.41,3.18,1.32,6.51,2.88,9.27,1.88,3.34,5.48,4.69,9.29,5.05,2.19,.21,3.9,.97,3.74,3.48-.18,2.78-2.22,3.06-4.47,2.99-9.6-.32-17.44-8.45-17.95-18.66-.39-7.75-5.44-13.13-12.47-13.3-7.44-.18-12.84,5.19-13.27,13.17-.53,10.03-7.82,18-17.15,18.71-2.32,.18-4.93,.49-5.26-2.77-.3-2.95,1.95-3.33,4.27-3.71,7.36-1.19,10.86-5.31,11.63-13.41,1.05-11.06,9.04-18.73,19.48-18.68Z"/>
  </g>
</svg>