<?xml version="1.0" encoding="UTF-8"?>
<svg id="Layer_1" data-name="Layer 1" xmlns="http://www.w3.org/2000/svg" viewBox="0 0 500 500">
  <defs>
    <style>
      .cls-1 {
        fill: #faa17d;
      }

      .cls-2 {
        fill: #fff;
      }

      .cls-3 {
        fill: #3e48ad;
      }
    </style>
  </defs>
  <path class="cls-1" d="M323.52,244.24c0,28.58,0,57.16,0,85.74,0,11.21-6.54,17.83-17.62,17.83-37.97,0-75.93,0-113.9,0-11.11,0-17.61-6.59-17.61-17.83-.01-57.43-.02-114.87-.02-172.3,0-10.03,6.85-16.99,16.81-16.99,38.52-.02,77.04-.02,115.56,0,9.97,0,16.78,6.91,16.78,16.99,.01,28.85,0,57.71,0,86.56Zm-74.57-40.74c-9.53,12.08-19.59,24.64-29.41,37.39-2.23,2.9-4.15,6.27-5.28,9.73-2.6,7.96,.31,15.77,6.85,20,6.54,4.23,14.06,3.56,20.65-1.87,1.13-.93,2.2-1.95,3.68-3.26,.95,8.74-2.2,15.07-10,20.08h25.56c-2.55-3.02-5.55-5.49-7.05-8.66-1.52-3.23-1.56-7.16-2.25-10.78,2.45,.85,3.75,2.05,5.13,3.14,5.73,4.52,11.95,5.57,18.52,2.11,6.69-3.52,10.04-9.35,8.82-16.73-.73-4.44-2.52-9.16-5.2-12.74-9.86-13.22-20.28-26.03-30.03-38.41Zm29.59,95.05c.2,.86,.32,1.68,.59,2.44,4.25,11.78,8.59,23.52,12.72,35.33,.88,2.53,2.2,3.29,4.79,3.3,2.63,.01,3.91-.83,4.77-3.33,3.15-9.24,6.52-18.41,9.8-27.61,1.19-3.33,2.37-6.66,3.56-9.99-4.49-1.5-7.12-.45-7.87,4.04-.16,.94-.74,1.8-.89,2.74-.75,4.72-3.43,5.99-8.09,5.71-10.18-.62-7.81,1.85-11.19-8.16-1.45-4.3-3.47-5.86-8.19-4.46Zm-59.42-108.6c-.06-.62,0-1.33-.21-1.94-4.38-12.19-8.87-24.33-13.13-36.56-.96-2.77-2.84-2.37-4.89-2.52-2.27-.17-3.47,.62-4.24,2.85-3.19,9.25-6.57,18.43-9.86,27.64-1.24,3.46-2.43,6.93-3.64,10.4,4.52,1.51,7.12,.39,7.85-4.08,.13-.8,.65-1.54,.78-2.35,.76-4.77,3.29-6.41,8.25-6.08,10.12,.68,7.72-1.84,11.17,8.25,1.47,4.29,3.5,5.84,7.91,4.39Z"/>
  <path class="cls-3" d="M165.96,162.73v101.83c-.25,.12-.5,.23-.76,.35-8.03-17.34-16.07-34.67-24.46-52.77-5.37,5.75-10.49,10.9-15.09,16.49-.7,.85,.43,4.26,1.68,5.51,8.79,8.75,17.84,17.25,26.81,25.83,2.09,2,3.92,4.4,6.3,5.96,6.26,4.1,6.27,9.95,5.25,17.05-5.34-5.11-10.27-9.83-15.2-14.54-9.56-9.15-19.19-18.25-28.68-27.47-7.56-7.35-7.61-13.31-.39-21.03,4.43-4.73,8.81-9.51,13.38-14.11,1.66-1.67,1.82-3.09,.78-5.09-1.46-2.81-2.79-5.7-3.98-8.63-2.88-7.05-.51-13.33,6.33-16.53,9.08-4.25,18.22-8.36,28.02-12.85Z"/>
  <path class="cls-3" d="M332.03,333.6v-101.47c.23-.09,.45-.17,.68-.26,8.01,17.28,16.01,34.56,24.11,52.06,4.02-3.88,7.91-7.45,11.59-11.23,6.21-6.38,6.12-6.39-.35-12.56-10.68-10.18-21.02-20.74-32.07-30.5-5.14-4.54-4.04-9.64-4.11-16.04,3.96,3.7,7.35,6.79,10.66,9.96,11.35,10.88,22.72,21.73,33.98,32.7,6.92,6.74,7.05,12.76,.62,19.79-4.56,4.99-9.16,9.94-13.92,14.74-1.78,1.79-1.96,3.3-.81,5.44,1.43,2.67,2.65,5.46,3.81,8.25,3.01,7.23,.63,13.49-6.45,16.8-8.24,3.85-16.54,7.57-24.83,11.32-.83,.38-1.74,.6-2.91,.99Z"/>
  <path class="cls-3" d="M301.3,356.46c-7.38,7.76-13.97,15-20.92,21.88-4.01,3.97-10.45,3.75-15.17-.07-2.56-2.08-4.94-4.42-7.23-6.8-1.79-1.86-3.44-2.14-5.82-.98-6.44,3.15-13,6.05-19.52,9.02-7.28,3.32-13.76,1.11-17.29-6.05-2.72-5.52-5.2-11.16-7.97-17.13h73.91c.08,.23,.16,.47,.24,.7-5.63,2.63-11.26,5.26-17.59,8.21,2.64,2.46,4.61,4.79,7.07,6.34,1.01,.64,3.56,.16,4.57-.75,3.27-2.94,6.58-6.02,9.08-9.6,4.12-5.91,9.68-5.6,16.63-4.78Z"/>
  <path class="cls-3" d="M286.81,132.39h-35.56c-2.48,0-5-.28-7.44,.06-6.12,.85-10.96-.72-15.04-5.69-3.01-3.66-4.76-3.68-7.55,.31-4.26,6.09-9.84,5.85-16.9,4.92,5.07-5.13,9.44-10.04,14.34-14.34,3.25-2.86,7.52-2.57,11.31-.73,2.18,1.06,4.12,2.74,5.92,4.41,6.74,6.24,6.71,6.3,15.19,2.47,4.9-2.21,9.74-4.54,14.65-6.74,6.65-2.98,13.08-.81,16.47,5.6,1.53,2.89,2.81,5.91,4.61,9.74Z"/>
  <path class="cls-2" d="M248.96,203.5c9.76,12.38,20.18,25.19,30.03,38.41,2.67,3.58,4.46,8.3,5.2,12.74,1.22,7.37-2.14,13.21-8.82,16.73-6.57,3.46-12.79,2.41-18.52-2.11-1.38-1.09-2.68-2.29-5.13-3.14,.69,3.62,.73,7.55,2.25,10.78,1.5,3.17,4.5,5.64,7.05,8.66h-25.56c7.8-5.01,10.95-11.33,10-20.08-1.48,1.31-2.54,2.32-3.68,3.26-6.6,5.42-14.12,6.09-20.65,1.87-6.53-4.23-9.45-12.04-6.85-20,1.13-3.46,3.05-6.83,5.28-9.73,9.81-12.75,19.87-25.31,29.41-37.39Z"/>
  <path class="cls-2" d="M278.54,298.54c4.72-1.41,6.73,.15,8.19,4.46,3.38,10.01,1.01,7.54,11.19,8.16,4.65,.28,7.34-.99,8.09-5.71,.15-.94,.74-1.8,.89-2.74,.74-4.49,3.38-5.53,7.87-4.04-1.19,3.33-2.37,6.66-3.56,9.99-3.28,9.2-6.64,18.37-9.8,27.61-.85,2.5-2.14,3.35-4.77,3.33-2.6-.01-3.91-.77-4.79-3.3-4.14-11.81-8.47-23.56-12.72-35.33-.27-.76-.39-1.58-.59-2.44Zm17.68,32.21l1.11,.03c1.66-4.81,3.31-9.61,5.07-14.71h-11.38c1.85,5.23,3.52,9.95,5.2,14.67Z"/>
  <path class="cls-2" d="M219.13,189.95c-4.41,1.45-6.44-.09-7.91-4.39-3.46-10.09-1.05-7.57-11.17-8.25-4.97-.33-7.49,1.31-8.25,6.08-.13,.8-.64,1.54-.78,2.35-.73,4.47-3.34,5.58-7.85,4.08,1.21-3.47,2.41-6.94,3.64-10.4,3.29-9.21,6.67-18.39,9.86-27.64,.77-2.23,1.96-3.02,4.24-2.85,2.05,.15,3.92-.24,4.89,2.52,4.26,12.23,8.75,24.38,13.13,36.56,.22,.61,.15,1.31,.21,1.94Zm-12.13-17.38c-1.99-5.47-3.72-10.22-5.44-14.96-.33,.04-.66,.08-.99,.12-1.65,4.81-3.31,9.62-5.1,14.84h11.54Z"/>
  <path class="cls-1" d="M296.22,330.75c-1.67-4.72-3.34-9.44-5.2-14.67h11.38c-1.76,5.1-3.41,9.9-5.07,14.71l-1.11-.03Z"/>
  <path class="cls-1" d="M207,172.56h-11.54c1.79-5.22,3.45-10.03,5.1-14.84,.33-.04,.66-.08,.99-.12,1.73,4.74,3.45,9.49,5.44,14.96Z"/>
</svg>