<?xml version="1.0" encoding="UTF-8"?>
<svg xmlns="http://www.w3.org/2000/svg" viewBox="0 0 500 500">
  <defs>
    <style>
      .cls-1 {
        fill: #3e48ad;
      }

      .cls-2 {
        fill: #faa17d;
        stroke: #3e48ad;
        stroke-miterlimit: 10;
        stroke-width: 2px;
      }
    </style>
  </defs>
  <g id="Layer_2" data-name="Layer 2">
    <g>
      <path class="cls-1" d="M222.23,123.25c0,.77,0,1.4,0,2.03-.14,9.1-.19,18.21-.43,27.31-.42,16.17-.97,32.35-1.43,48.52-.22,7.58-.31,15.17-.55,22.75-.14,4.45-1.21,8.69-3.87,12.34-3.68,5.06-7.5,10.02-11.24,15.05-6.04,8.13-12.18,16.17-18.02,24.44-3.81,5.39-6.18,11.53-7.87,17.92-1.26,4.78-1.84,9.67-2.16,14.59-.48,7.38,.18,14.65,2.32,21.74,2.37,7.82,6.23,14.86,11.46,21.14,6.65,8,14.76,14.08,24.18,18.43,6.18,2.86,12.64,4.73,19.39,5.76,8.01,1.22,15.95,.94,23.87-.63,10.18-2.02,19.46-6.15,27.83-12.23,8.69-6.31,15.52-14.25,20.21-23.96,2.46-5.11,4.18-10.45,5.03-16.07,.79-5.19,.88-10.38,.49-15.62-.42-5.61-1.27-11.12-2.98-16.47-2.44-7.6-6.26-14.48-11.1-20.82-7.64-10.02-15.17-20.13-22.91-30.08-4.04-5.2-6.21-10.88-6.13-17.48,.05-4.21-.08-8.42-.21-12.63-.62-21.4-1.3-42.8-1.89-64.2-.19-6.83-.18-13.66-.19-20.49,0-1.14-.36-1.47-1.45-1.43-1.77,.07-3.54,.02-5.31,.02-2.35,0-4.7,0-7.22,0,0,.61,0,1.11,0,1.6,.02,12-.03,24,.07,36,.17,20.95,.41,41.91,.7,62.86,.04,2.63,.41,5.28,.83,7.89,.93,5.68,3.47,10.68,6.9,15.24,6.85,9.09,13.77,18.14,20.61,27.24,2.67,3.55,5.4,7.09,7.78,10.84,3.07,4.83,4.95,10.19,5.98,15.82,1.2,6.56,1.63,13.18,.46,19.75-1.92,10.81-7.42,19.65-15.7,26.79-5.45,4.7-11.63,8.13-18.45,10.36-2.81,.92-5.73,1.52-8.72,2.29-.06-.67-.12-1.04-.13-1.41-.11-3.58-.24-7.16-.32-10.74-.27-10.76-.52-21.52-.78-32.29-.27-11.25-.54-22.5-.79-33.75-.29-12.68-.54-25.36-.84-38.03-.28-11.71-.63-23.42-.91-35.13-.35-14.45-.65-28.91-1-43.37-.19-7.7-.49-15.4-.68-23.1-.17-7.16-.22-14.32-.43-21.47-.04-1.21-.45-2.5-1.02-3.57-1.27-2.39-3.66-3.06-6.11-3.12-9.99-.26-19.97-.38-29.96-.58-1.91-.04-3.81-.16-5.86-.25,.27-.51,.45-.83,.63-1.16,1.31-2.43,1.11-4.84-.43-7.02-1.64-2.31-4.81-3.41-7.26-2.57-3.12,1.07-5.09,3.48-4.84,7.13,.21,3.07,2.68,5.65,5.89,5.9,7.35,.58,14.71,1.09,22.07,1.53,6.06,.37,12.13,.57,18.18,.91,2.61,.15,3.66,1.42,3.6,4.02-.22,9.09-.45,18.19-.67,27.28-.48,20.35-.94,40.71-1.41,61.07-.28,11.94-.58,23.87-.87,35.81-.44,18.12-.87,36.24-1.3,54.36-.44,18.62-.87,37.24-1.31,55.87-.03,1.16-.14,2.31-.23,3.78-3.35-.94-6.54-1.69-9.63-2.74-10.48-3.58-19.08-9.79-25.61-18.78-4.18-5.75-6.86-12.15-7.8-19.2-.91-6.78-.47-13.53,.98-20.22,1.13-5.23,3.03-10.17,5.94-14.63,2.59-3.97,5.48-7.74,8.33-11.53,6.55-8.7,13.15-17.36,19.73-26.03,4.69-6.17,7.28-13.11,7.62-20.85,.19-4.46,.36-8.93,.39-13.4,.19-29.33,.34-58.67,.5-88,0-.44-.06-.88-.09-1.31h-13.85Z"/>
      <path class="cls-1" d="M222.23,123.25h13.85c.03,.43,.1,.87,.09,1.31-.16,29.33-.31,58.67-.5,88-.03,4.47-.2,8.93-.39,13.4-.34,7.74-2.93,14.68-7.62,20.85-6.59,8.67-13.19,17.33-19.73,26.03-2.85,3.79-5.74,7.56-8.33,11.53-2.91,4.46-4.81,9.4-5.94,14.63-1.45,6.69-1.89,13.44-.98,20.22,.94,7.04,3.63,13.45,7.8,19.2,6.53,8.99,15.13,15.2,25.61,18.78,3.09,1.06,6.28,1.8,9.63,2.74,.09-1.47,.2-2.63,.23-3.78,.44-18.62,.87-37.24,1.31-55.87,.43-18.12,.86-36.24,1.3-54.36,.29-11.94,.59-23.87,.87-35.81,.48-20.35,.94-40.71,1.41-61.07,.21-9.09,.44-18.19,.67-27.28,.06-2.6-.98-3.87-3.6-4.02-6.06-.35-12.13-.54-18.18-.91-7.36-.45-14.72-.95-22.07-1.53-3.22-.25-5.68-2.84-5.89-5.9-.25-3.64,1.72-6.05,4.84-7.13,2.45-.84,5.62,.26,7.26,2.57,1.55,2.18,1.74,4.59,.43,7.02-.18,.33-.35,.65-.63,1.16,2.05,.09,3.96,.22,5.86,.25,9.99,.19,19.98,.32,29.96,.58,2.45,.06,4.84,.74,6.11,3.12,.57,1.07,.99,2.36,1.02,3.57,.21,7.16,.25,14.32,.43,21.47,.19,7.7,.49,15.4,.68,23.1,.36,14.45,.65,28.91,1,43.37,.28,11.71,.63,23.42,.91,35.13,.3,12.68,.55,25.36,.84,38.03,.25,11.25,.53,22.5,.79,33.75,.26,10.76,.51,21.52,.78,32.29,.09,3.58,.21,7.16,.32,10.74,.01,.37,.07,.74,.13,1.41,2.98-.77,5.9-1.37,8.72-2.29,6.82-2.23,13.01-5.66,18.45-10.36,8.28-7.14,13.77-15.98,15.7-26.79,1.17-6.57,.73-13.19-.46-19.75-1.03-5.64-2.91-11-5.98-15.82-2.38-3.75-5.11-7.28-7.78-10.84-6.84-9.1-13.76-18.14-20.61-27.24-3.43-4.56-5.97-9.56-6.9-15.24-.43-2.61-.8-5.25-.83-7.89-.29-20.95-.52-41.91-.7-62.86-.1-12-.05-24-.07-36,0-.49,0-.99,0-1.6,2.52,0,4.87,0,7.22,0,1.77,0,3.54,.05,5.31-.02,1.09-.04,1.44,.29,1.45,1.43,.01,6.83,0,13.66,.19,20.49,.59,21.4,1.27,42.8,1.89,64.2,.12,4.21,.25,8.42,.21,12.63-.07,6.59,2.09,12.28,6.13,17.48,7.74,9.95,15.26,20.06,22.91,30.08,4.83,6.34,8.66,13.21,11.1,20.82,1.71,5.35,2.57,10.86,2.98,16.47,.39,5.24,.29,10.43-.49,15.62-.85,5.62-2.57,10.96-5.03,16.07-4.69,9.71-11.52,17.65-20.21,23.96-8.37,6.08-17.65,10.21-27.83,12.23-7.92,1.57-15.85,1.85-23.87,.63-6.74-1.03-13.21-2.91-19.39-5.76-9.41-4.35-17.53-10.44-24.18-18.43-5.23-6.28-9.09-13.32-11.46-21.14-2.14-7.09-2.8-14.36-2.32-21.74,.32-4.92,.9-9.81,2.16-14.59,1.69-6.38,4.06-12.52,7.87-17.92,5.84-8.26,11.99-16.31,18.02-24.44,3.73-5.02,7.55-9.98,11.24-15.05,2.66-3.65,3.73-7.89,3.87-12.34,.23-7.58,.33-15.16,.55-22.75,.46-16.17,1.01-32.34,1.43-48.52,.24-9.1,.29-18.21,.43-27.31,0-.63,0-1.26,0-2.03Zm-23.93-10.43c2.22,.05,4.13-1.69,4.19-3.8,.07-2.42-1.65-4.39-3.86-4.42-2.33-.03-4.21,1.74-4.29,4.02-.08,2.21,1.76,4.15,3.96,4.19Z"/>
      <path class="cls-1" d="M198.3,112.82c-2.2-.05-4.03-1.99-3.96-4.19,.08-2.29,1.96-4.05,4.29-4.02,2.21,.03,3.93,2,3.86,4.42-.06,2.11-1.97,3.85-4.19,3.8Z"/>
    </g>
  </g>
  <g id="Layer_1" data-name="Layer 1">
    <g>
      <path class="cls-2" d="M217.55,126.04c0,.77,0,1.4,0,2.03-.14,9.1-.19,18.21-.43,27.31-.42,16.17-.97,32.35-1.43,48.52-.22,7.58-.31,15.17-.55,22.75-.14,4.45-1.21,8.69-3.87,12.34-3.68,5.06-7.5,10.02-11.24,15.05-6.04,8.13-12.18,16.17-18.02,24.44-3.81,5.39-6.18,11.53-7.87,17.92-1.26,4.78-1.84,9.67-2.16,14.59-.48,7.38,.18,14.65,2.32,21.74,2.37,7.82,6.23,14.86,11.46,21.14,6.65,8,14.76,14.08,24.18,18.43,6.18,2.86,12.64,4.73,19.39,5.76,8.01,1.22,15.95,.94,23.87-.63,10.18-2.02,19.46-6.15,27.83-12.23,8.69-6.31,15.52-14.25,20.21-23.96,2.46-5.11,4.18-10.45,5.03-16.07,.79-5.19,.88-10.38,.49-15.62-.42-5.61-1.27-11.12-2.98-16.47-2.44-7.6-6.26-14.48-11.1-20.82-7.64-10.02-15.17-20.13-22.91-30.08-4.04-5.2-6.21-10.88-6.13-17.48,.05-4.21-.08-8.42-.21-12.63-.62-21.4-1.3-42.8-1.89-64.2-.19-6.83-.18-13.66-.19-20.49,0-1.14-.36-1.47-1.45-1.43-1.77,.07-3.54,.02-5.31,.02-2.35,0-4.7,0-7.22,0,0,.61,0,1.11,0,1.6,.02,12-.03,24,.07,36,.17,20.95,.41,41.91,.7,62.86,.04,2.63,.41,5.28,.83,7.89,.93,5.68,3.47,10.68,6.9,15.24,6.85,9.09,13.77,18.14,20.61,27.24,2.67,3.55,5.4,7.09,7.78,10.84,3.07,4.83,4.95,10.19,5.98,15.82,1.2,6.56,1.63,13.18,.46,19.75-1.92,10.81-7.42,19.65-15.7,26.79-5.45,4.7-11.63,8.13-18.45,10.36-2.81,.92-5.73,1.52-8.72,2.29-.06-.67-.12-1.04-.13-1.41-.11-3.58-.24-7.16-.32-10.74-.27-10.76-.52-21.52-.78-32.29-.27-11.25-.54-22.5-.79-33.75-.29-12.68-.54-25.36-.84-38.03-.28-11.71-.63-23.42-.91-35.13-.35-14.45-.65-28.91-1-43.37-.19-7.7-.49-15.4-.68-23.1-.17-7.16-.22-14.32-.43-21.47-.04-1.21-.45-2.5-1.02-3.57-1.27-2.39-3.66-3.06-6.11-3.12-9.99-.26-19.97-.38-29.96-.58-1.91-.04-3.81-.16-5.86-.25,.27-.51,.45-.83,.63-1.16,1.31-2.43,1.11-4.84-.43-7.02-1.64-2.31-4.81-3.41-7.26-2.57-3.12,1.07-5.09,3.48-4.84,7.13,.21,3.07,2.68,5.65,5.89,5.9,7.35,.58,14.71,1.09,22.07,1.53,6.06,.37,12.13,.57,18.18,.91,2.61,.15,3.66,1.42,3.6,4.02-.22,9.09-.45,18.19-.67,27.28-.48,20.35-.94,40.71-1.41,61.07-.28,11.94-.58,23.87-.87,35.81-.44,18.12-.87,36.24-1.3,54.36-.44,18.62-.87,37.24-1.31,55.87-.03,1.16-.14,2.31-.23,3.78-3.35-.94-6.54-1.69-9.63-2.74-10.48-3.58-19.08-9.79-25.61-18.78-4.18-5.75-6.86-12.15-7.8-19.2-.91-6.78-.47-13.53,.98-20.22,1.13-5.23,3.03-10.17,5.94-14.63,2.59-3.97,5.48-7.74,8.33-11.53,6.55-8.7,13.15-17.36,19.73-26.03,4.69-6.17,7.28-13.11,7.62-20.85,.19-4.46,.36-8.93,.39-13.4,.19-29.33,.34-58.67,.5-88,0-.44-.06-.88-.09-1.31h-13.85Z"/>
      <path class="cls-2" d="M217.55,126.04h13.85c.03,.43,.1,.87,.09,1.31-.16,29.33-.31,58.67-.5,88-.03,4.47-.2,8.93-.39,13.4-.34,7.74-2.93,14.68-7.62,20.85-6.59,8.67-13.19,17.33-19.73,26.03-2.85,3.79-5.74,7.56-8.33,11.53-2.91,4.46-4.81,9.4-5.94,14.63-1.45,6.69-1.89,13.44-.98,20.22,.94,7.04,3.63,13.45,7.8,19.2,6.53,8.99,15.13,15.2,25.61,18.78,3.09,1.06,6.28,1.8,9.63,2.74,.09-1.47,.2-2.63,.23-3.78,.44-18.62,.87-37.24,1.31-55.87,.43-18.12,.86-36.24,1.3-54.36,.29-11.94,.59-23.87,.87-35.81,.48-20.35,.94-40.71,1.41-61.07,.21-9.09,.44-18.19,.67-27.28,.06-2.6-.98-3.87-3.6-4.02-6.06-.35-12.13-.54-18.18-.91-7.36-.45-14.72-.95-22.07-1.53-3.22-.25-5.68-2.84-5.89-5.9-.25-3.64,1.72-6.05,4.84-7.13,2.45-.84,5.62,.26,7.26,2.57,1.55,2.18,1.74,4.59,.43,7.02-.18,.33-.35,.65-.63,1.16,2.05,.09,3.96,.22,5.86,.25,9.99,.19,19.98,.32,29.96,.58,2.45,.06,4.84,.74,6.11,3.12,.57,1.07,.99,2.36,1.02,3.57,.21,7.16,.25,14.32,.43,21.47,.19,7.7,.49,15.4,.68,23.1,.36,14.45,.65,28.91,1,43.37,.28,11.71,.63,23.42,.91,35.13,.3,12.68,.55,25.36,.84,38.03,.25,11.25,.53,22.5,.79,33.75,.26,10.76,.51,21.52,.78,32.29,.09,3.58,.21,7.16,.32,10.74,.01,.37,.07,.74,.13,1.41,2.98-.77,5.9-1.37,8.72-2.29,6.82-2.23,13.01-5.66,18.45-10.36,8.28-7.14,13.77-15.98,15.7-26.79,1.17-6.57,.73-13.19-.46-19.75-1.03-5.64-2.91-11-5.98-15.82-2.38-3.75-5.11-7.28-7.78-10.84-6.84-9.1-13.76-18.14-20.61-27.24-3.43-4.56-5.97-9.56-6.9-15.24-.43-2.61-.8-5.25-.83-7.89-.29-20.95-.52-41.91-.7-62.86-.1-12-.05-24-.07-36,0-.49,0-.99,0-1.6,2.52,0,4.87,0,7.22,0,1.77,0,3.54,.05,5.31-.02,1.09-.04,1.44,.29,1.45,1.43,.01,6.83,0,13.66,.19,20.49,.59,21.4,1.27,42.8,1.89,64.2,.12,4.21,.25,8.42,.21,12.63-.07,6.59,2.09,12.28,6.13,17.48,7.74,9.95,15.26,20.06,22.91,30.08,4.83,6.34,8.66,13.21,11.1,20.82,1.71,5.35,2.57,10.86,2.98,16.47,.39,5.24,.29,10.43-.49,15.62-.85,5.62-2.57,10.96-5.03,16.07-4.69,9.71-11.52,17.65-20.21,23.96-8.37,6.08-17.65,10.21-27.83,12.23-7.92,1.57-15.85,1.85-23.87,.63-6.74-1.03-13.21-2.91-19.39-5.76-9.41-4.35-17.53-10.44-24.18-18.43-5.23-6.28-9.09-13.32-11.46-21.14-2.14-7.09-2.8-14.36-2.32-21.74,.32-4.92,.9-9.81,2.16-14.59,1.69-6.38,4.06-12.52,7.87-17.92,5.84-8.26,11.99-16.31,18.02-24.44,3.73-5.02,7.55-9.98,11.24-15.05,2.66-3.65,3.73-7.89,3.87-12.34,.23-7.58,.33-15.16,.55-22.75,.46-16.17,1.01-32.34,1.43-48.52,.24-9.1,.29-18.21,.43-27.31,0-.63,0-1.26,0-2.03Zm-23.93-10.43c2.22,.05,4.13-1.69,4.19-3.8,.07-2.42-1.65-4.39-3.86-4.42-2.33-.03-4.21,1.74-4.29,4.02-.08,2.21,1.76,4.15,3.96,4.19Z"/>
      <path class="cls-2" d="M193.62,115.61c-2.2-.05-4.03-1.99-3.96-4.19,.08-2.29,1.96-4.05,4.29-4.02,2.21,.03,3.93,2,3.86,4.42-.06,2.11-1.97,3.85-4.19,3.8Z"/>
    </g>
  </g>
</svg>