<?xml version="1.0" encoding="UTF-8"?>
<svg xmlns="http://www.w3.org/2000/svg" viewBox="0 0 500 500">
  <defs>
    <style>
      .cls-1 {
        fill: #3e48ad;
      }

      .cls-2 {
        fill: #faa17d;
        stroke: #3e48ad;
        stroke-width: 2px;
      }

      .cls-2, .cls-3 {
        stroke-miterlimit: 10;
      }

      .cls-3 {
        fill: #fff;
        stroke: #000;
      }
    </style>
  </defs>
  <g id="Layer_2" data-name="Layer 2">
    <path class="cls-1" d="M355.36,204.8c-.06,0-.13,0-.19,0-10.85,0-19.64-8.8-19.64-19.64,0-3.65,1-7.06,2.73-9.99l-20.13-34.87h-37.43c-3.39,5.89-9.75,9.86-17.03,9.86s-13.64-3.97-17.03-9.86h-42.09l-56.79,98.37,56.79,98.37h113.59l56.79-98.37-19.56-33.87Z"/>
  </g>
  <g id="Layer_5" data-name="Layer 5">
    <polygon class="cls-3" points="288.2 191.96 188.82 191.96 139.13 278.02 188.82 364.08 288.2 364.08 337.88 278.02 288.2 191.96"/>
  </g>
  <g id="Layer_1" data-name="Layer 1">
    <path class="cls-2" d="M317.72,325.32c0-10.42,8.12-18.95,18.38-19.6l15.99-27.7-24.56-42.54c-.13,0-.27,.01-.4,.01-10.85,0-19.64-8.8-19.64-19.64,0-3.72,1.04-7.2,2.84-10.17l-15.03-26.03h-43.8c-3.59,4.73-9.26,7.78-15.65,7.78s-12.07-3.05-15.65-7.78h-38.48l-18.74,32.45c.81,2.15,1.26,4.49,1.26,6.93,0,9.76-7.12,17.86-16.45,19.38l-22.87,39.61,22.89,39.64c9.34,1.52,16.46,9.62,16.46,19.38,0,2.44-.45,4.78-1.27,6.94l18.71,32.41h35.35c3.34-6.06,9.8-10.17,17.21-10.17s13.87,4.11,17.21,10.17h43.81l24.46-42.36c-1.3-2.62-2.03-5.58-2.03-8.71Zm-143.64-29.23c-10.85,0-19.64-8.8-19.64-19.64s8.8-19.64,19.64-19.64,19.64,8.8,19.64,19.64-8.79,19.64-19.64,19.64Zm29.56,51.24c-10.85,0-19.64-8.8-19.64-19.64s8.79-19.64,19.64-19.64,19.64,8.8,19.64,19.64-8.8,19.64-19.64,19.64Zm0-108.72c-10.85,0-19.64-8.8-19.64-19.64s8.79-19.64,19.64-19.64,19.64,8.8,19.64,19.64-8.8,19.64-19.64,19.64Zm61.38-37.66c10.85,0,19.64,8.8,19.64,19.64s-8.8,19.64-19.64,19.64-19.64-8.8-19.64-19.64,8.79-19.64,19.64-19.64Zm1.45,146.37c-10.85,0-19.64-8.8-19.64-19.64s8.8-19.64,19.64-19.64,19.64,8.8,19.64,19.64-8.8,19.64-19.64,19.64Zm35.53-52.84c-10.85,0-19.64-8.8-19.64-19.64s8.79-19.64,19.64-19.64,19.64,8.8,19.64,19.64-8.8,19.64-19.64,19.64Z"/>
  </g>
</svg>