<?xml version="1.0" encoding="UTF-8"?>
<svg id="Layer_1" data-name="Layer 1" xmlns="http://www.w3.org/2000/svg" viewBox="0 0 500 500">
  <defs>
    <style>
      .cls-1 {
        fill: #fff;
      }

      .cls-2 {
        fill: #3e48ad;
      }

      .cls-3 {
        fill: #faa17d;
        stroke: #3e48ad;
        stroke-miterlimit: 10;
        stroke-width: 2px;
      }
    </style>
  </defs>
  <path class="cls-3" d="M228.66,379.74c-1.26,1.7-2.37,3.54-3.8,5.07-5.94,6.4-15.53,4.58-18.62-3.61-.81-2.16-1.47-4.74-1.07-6.92,3.13-17.12-1.19-33.28-6.55-49.15-5.45-16.12-12.2-31.81-17.59-47.95-3.73-11.18-6.12-22.81-9.17-34.48-4.94-1.08-10.82-1.83-16.31-3.72-4.38-1.51-8.73-3.86-12.31-6.8-7.59-6.22-8.21-14.3-2.24-22.13,1.62-2.13,3.7-3.94,5.72-5.74,7.14-6.38,14.54-12.48,21.47-19.08,9.47-9.01,21.7-8.4,29.09,2.32,4.68,6.79,10.04,12.74,16.66,17.61,1.27,.93,2.39,2.07,3.5,3.19,10.92,11,7.9,25.53-6.7,30.98-4.59,1.71-9.61,2.28-14.45,3.27-1.74,.35-3.55,.38-5.68,.6,3.35,23.12,14.97,42.72,24.94,64.05,.69-4.05,1.16-7.21,1.78-10.33,3.86-19.34,10.37-37.82,18.19-55.89,5.71-13.18,9.91-26.84,11.75-41.22-5.65-.41-11.15-.54-16.58-1.28-7-.97-13.57-3.31-19.23-7.78-8.41-6.65-10.43-15.21-5.15-24.58,2.18-3.87,5.06-7.56,8.33-10.55,8.23-7.52,15.17-16.08,21.7-25.03,5.86-8.04,13.72-10.94,23.42-9.29,4.56,.77,8.48,2.98,11.24,6.44,7.47,9.37,17.05,15.98,27.07,22.2,5.79,3.6,10.33,8.52,11.73,15.51,1.72,8.6-1.37,15.62-7.96,21.02-8.12,6.66-17.89,9.34-28.07,10.82-1.34,.19-2.68,.39-4.01,.6-.43,.07-.85,.21-1.32,.33-.92,6.86-1.84,13.65-2.87,21.36,2.69-2.32,4.86-4.03,6.85-5.93,2.94-2.8,5.61-5.9,8.64-8.59,7.58-6.71,17.52-6.05,24.51,1.24,6.55,6.83,13.31,13.46,19.93,20.21,1.66,1.69,3.29,3.43,4.71,5.31,6.2,8.26,3.73,18.82-5.56,23.41-6.81,3.37-14.14,4.49-21.69,4.42-4.71-.04-4.76,0-5.43,4.66-3.23,22.57-12.75,42.33-26.19,60.56-7.42,10.06-13.86,20.84-20.77,31.27-1.23,1.85-1.21,3.51-.53,5.68,.89,2.84,1.5,6,1.25,8.93-.94,11.04-13.16,18.16-22.63,8.99Zm12.92-55.18c17.71-19.71,34.71-39.03,39.75-66-8.92-.66-17.25-2.71-24.6-7.98-9.51,23.69-16.27,47.62-15.16,73.98Zm5.45-162.19c-8.11,1.14-14.88,3.12-21.28,6.25-2.6,1.27-5.19,2.86-7.28,4.84-5.53,5.22-4.44,11.7,2.47,15.01,8.51,4.07,17.64,3.92,26.79,3.89v-20.74c-3.86,6.08-3.09,12.89-3.94,19.54-1.03-1.31-1.72-2.69-1.5-3.9,1.04-5.61,2.38-11.17,3.51-16.77,.51-2.5,.77-5.05,1.23-8.12Zm21.75,28.53c6.59-1.8,12.94-3.06,18.89-5.34,3.76-1.45,7.43-3.95,10.26-6.84,4.37-4.46,3.48-9.66-1.91-12.71-9.57-5.41-20.14-5.37-30.84-4.99,.44,1.09,1.01,1.86,1.73,2.46,6.57,5.49,10.76,12.69,14.45,20.22,.33,.67-.13,1.72-.23,2.6-.69-.56-1.6-.99-2.02-1.71-.85-1.45-1.36-3.1-2.13-4.6-2.86-5.56-5.91-11-10.97-15.09,.58,2.52,1.52,4.85,2.6,7.11,2.09,4.36,4.32,8.66,6.33,13.06,.4,.87,.06,2.07,.06,3.12-.36,.08-.72,.16-1.08,.24-1.78-4.56-3.56-9.12-5.34-13.68-.23,.08-.46,.17-.69,.25,.28,5.03,.56,10.06,.88,15.91Zm-100.33,43.74c-.37-.03-.74-.06-1.11-.09,0-1.02-.22-2.11,.04-3.06,1-3.67,2.17-7.29,3.24-10.93,.8-2.73,1.56-5.47,2.63-9.25-6.43,1.26-11.65,2.04-16.73,3.38-2.65,.7-5.28,2.08-7.48,3.73-4.2,3.15-4.25,7.97-.07,11.14,6.83,5.18,15.01,5.81,23.08,6.68v-15c-.29-.04-.58-.08-.87-.12-.91,4.51-1.82,9.01-2.73,13.52Zm21.08,1.97c6.95-.14,13.52-.66,19.65-3.58,1.5-.71,2.92-1.74,4.12-2.89,3.48-3.37,3.48-7.25-.33-10.14-7.16-5.43-15.71-6.48-24.77-7.6,2.62,4,5.07,7.32,7.08,10.89,3.4,6.03,4.17,9.1,3.03,12.37-2.69-7.41-4.6-14.38-9.64-19.7,.4,6.77,5.63,12.27,5.22,19.19-.35,.12-.71,.23-1.06,.35-1.1-3.98-2.21-7.96-3.31-11.94-.29,.07-.58,.14-.86,.2,.29,4.19,.58,8.39,.88,12.87Zm109.25,15.53c7.21,.05,13.85-.04,19.96-3.1,4.15-2.07,4.24-5.74,.13-7.89-6.24-3.27-13.08-4.31-20.09-4.78v15.76Zm-14.31-16.8c-8.04-.57-16.21,.49-19.96,2.45-4.13,2.16-4.48,5.38-.67,8.04,5.66,3.96,12.26,4.48,19.23,5.15,.49-5.43,.93-10.43,1.4-15.64Z"/>
  <path class="cls-3" d="M129.07,289.85c-4.3-.6-8.44-1.04-12.51-1.82-2.19-.42-4.36-1.23-6.37-2.21-5.1-2.5-7.47-7.61-5.66-12.99,.95-2.81,2.42-5.72,4.45-7.83,5.07-5.28,10.4-10.35,15.99-15.09,6.37-5.39,13.82-5.66,20.54-.67,5.88,4.36,11.61,9.02,16.87,14.1,8.37,8.09,6.37,17.92-4.47,22.18-4.65,1.83-9.74,2.54-14.85,3.81,2.37,10.94,7.42,20.66,14.54,29.3,8.25,10.02,17.09,19.57,24.84,29.95,5.08,6.81,8.96,14.58,12.76,22.23,1.41,2.84,1.54,6.6,1.31,9.88-.3,4.36-3.01,7.55-7.23,8.94-4.22,1.39-8.08,.33-11.17-2.87-1.31-1.36-2.53-2.94-3.31-4.65-8.59-18.73-19.23-36.26-30.63-53.38-7.66-11.5-13.06-23.95-14.75-37.81-.05-.43-.26-.83-.34-1.08Zm13.07-5.97c5.77,.1,12.86-1.68,15.99-3.89,3.82-2.68,3.73-6.48-.62-7.83-4.82-1.49-9.97-1.91-15.37-2.87v14.58Zm-13.37,1.24c.25-4.83,.47-9.27,.71-14.06-5.95,.66-11.61,1.41-16.66,4.34-3.14,1.82-3.2,4.92-.14,6.68,4.94,2.84,10.43,2.92,16.09,3.03Z"/>
  <path class="cls-3" d="M307.91,317.61c-3.14-1.01-5.43-1.39-7.35-2.45-3.01-1.67-6.17-3.41-8.54-5.83-3.64-3.7-3.83-9.14-.73-13.37,1.77-2.41,3.92-4.85,6.45-6.33,5.8-3.4,11.74-6.73,18-9.13,5.06-1.94,10.69-1.03,14.46,3.11,5.05,5.54,10.13,11.33,13.76,17.81,5.22,9.31,.59,17.39-10.03,18.8-3.77,.5-7.66,0-11.48,.2-.95,.05-2.37,.8-2.69,1.59-4.96,12.22-12.89,22.46-21.36,32.33-6.27,7.31-12.01,14.96-15.73,23.94-.09,.21-.2,.4-.31,.6-3.12,5.93-7.45,8.19-12.16,6.34-4.51-1.77-6.88-7.37-5.42-13.19,1.75-6.93,5.31-13.01,10.03-18.23,6.58-7.27,13.72-14.04,20.39-21.23,4.32-4.66,8.25-9.68,12.71-14.97Zm14.19-2.63c4.28,0,8.1,.29,11.83-.15,1.45-.17,3.55-1.85,3.79-3.13,.22-1.19-1.34-3.32-2.67-4.05-3.18-1.77-6.68-2.96-10.37-4.52-.91,4.18-1.69,7.75-2.58,11.85Zm-12.8-1.82c1.09-3.26,1.91-5.71,2.73-8.15-.2-.09-.39-.17-.59-.26-1.31,1.94-2.61,3.88-3.92,5.82l-1.2-.92c2.19-2.77,4.37-5.53,7.34-9.28-5.29,.26-9.72,.31-14.1,.79-1.18,.13-2.98,1.5-3.12,2.49-.17,1.24,.71,3.29,1.77,3.93,3.4,2.06,7.09,3.62,11.09,5.59Z"/>
  <path class="cls-1" d="M247.73,171.62v20.74c-9.15,.03-18.28,.18-26.79-3.89-6.91-3.31-8-9.78-2.47-15.01,2.09-1.98,4.68-3.57,7.28-4.84,6.39-3.13,13.17-5.11,21.28-6.25m-7.24,3.56c-6.22,5.34-8.88,12.75-11.43,20.2-.3,.87,.1,1.98,.17,2.98,.69-.78,1.76-1.44,2.03-2.34,2.18-7.33,4.42-14.61,9.23-20.84Zm4.34-.35c-.98,1.31-2.33,2.47-2.87,3.94-2.21,5.99-4.24,12.05-6.15,18.14-.26,.82,.55,1.98,.87,2.98,.47-.89,1.22-1.74,1.35-2.68,1.07-7.76,2.65-15.32,6.8-22.37Zm-10.56,2.11c-4.1,2.32-10.93,11.42-11.96,17.01-.13,.71,.42,1.55,.64,2.3,4.08-6.96,7.95-13.57,11.31-19.31Zm-6.49,2.26c-5.22,2.29-10.95,10.23-8.96,12.93,3.04-4.39,6.08-8.77,8.96-12.93Z"/>
  <path class="cls-1" d="M268.61,172c-1.08-2.26-2.02-4.59-2.6-7.11m.9-1.42c-.72-.6-1.29-1.37-1.73-2.46,10.7-.37,21.27-.42,30.84,4.99,5.39,3.05,6.27,8.26,1.91,12.71-2.83,2.89-6.49,5.39-10.26,6.84-5.95,2.29-12.3,3.54-18.89,5.34-.32-5.85-.6-10.88-.88-15.91,.23-.08,.46-.17,.69-.25m1.01-12.22c8.14,5.42,12.82,13.73,17.73,21.85,1.55-5.23-10.05-19.17-17.73-21.85Zm5.76,.08c2.3,1.77,4.86,3.3,6.84,5.37,3.25,3.41,6.09,7.22,9.2,10.76,.67,.76,1.8,1.13,2.71,1.67-.28-1.06-.29-2.3-.89-3.13-1.45-2-3.09-3.88-4.79-5.68-3.71-3.92-7.67-7.54-13.08-9Zm8.46,.36c3.77,3.85,8.07,8.27,12.42,12.63,.37,.37,1.15,.34,1.75,.5,.03-.7,.37-1.62,.05-2.06-3.9-5.35-8.87-9.27-14.22-11.07Z"/>
  <path class="cls-1" d="M168.45,234.64c.91-4.51,1.82-9.01,2.73-13.52,.29,.04,.58,.08,.87,.12v15c-8.08-.88-16.25-1.5-23.08-6.68-4.18-3.17-4.13-7.98,.07-11.14,2.2-1.65,4.83-3.03,7.48-3.73,5.08-1.35,10.3-2.12,16.73-3.38-1.07,3.78-1.83,6.52-2.63,9.25-1.07,3.65-2.24,7.27-3.24,10.93-.26,.95-.04,2.04-.04,3.06,.37,.03,.74,.06,1.11,.09Zm-2.13-20.17c-5.3,5.06-8.5,10.71-11.01,16.95,.75,.26,1.12,.42,1.14,.39,3.19-5.56,6.35-11.14,9.87-17.34Zm3.14,1.52c-4.08,3.47-8.83,14.03-7.53,18,2.62-6.27,5.15-12.3,7.53-18Zm-18.94,12.53c.28,.22,.56,.44,.85,.66,3.57-4.74,7.13-9.49,10.82-14.39-5.51,3.42-9.23,8.06-11.67,13.73Zm5.87-12.14c-4.8,1.94-8.69,6.22-8.27,9.43,2.83-3.22,5.5-6.27,8.27-9.43Z"/>
  <path class="cls-1" d="M189.53,236.61c-.31-4.48-.6-8.67-.88-12.87,.29-.07,.58-.14,.86-.2,1.1,3.98,2.21,7.96,3.31,11.94,.35-.12,.71-.23,1.06-.35,.41-6.92-4.82-12.43-5.22-19.19,5.04,5.33,6.95,12.29,9.64,19.7,1.14-3.28,.37-6.34-3.03-12.37-2.01-3.57-4.46-6.89-7.08-10.89,9.06,1.12,17.61,2.17,24.77,7.6,3.81,2.89,3.81,6.77,.33,10.14-1.19,1.16-2.62,2.18-4.12,2.89-6.13,2.92-12.7,3.44-19.65,3.58Zm4.38-21.04c3.19,5.56,6.75,11.77,10.35,18.05,1.06-4.12-6.18-15.88-10.35-18.05Zm15.59,15.85c-.57-5.66-8.26-14.79-11.4-15.69,3.48,4.79,7.44,10.24,11.4,15.69Zm-5.92-14.75c3.05,3.69,6.32,7.64,9.6,11.62,.84-3.31-5.04-10.09-9.6-11.62Z"/>
  <path class="cls-1" d="M298.77,252.14v-15.76c7.01,.47,13.84,1.51,20.09,4.78,4.11,2.15,4.02,5.82-.13,7.89-6.11,3.05-12.75,3.15-19.96,3.1Zm2.79-13.2c-.29,.1-.57,.21-.86,.31,.41,3.32,.77,6.64,1.27,9.94,.09,.6,.76,1.12,1.16,1.67,.38-.58,1.18-1.25,1.08-1.72-.78-3.43-1.74-6.81-2.64-10.21Zm3.21-.17c-.23,.17-.46,.35-.69,.52,1.05,3.15,2.04,6.33,3.2,9.44,.24,.64,1.11,1.04,1.69,1.54,.15-.67,.64-1.48,.41-1.98-1.45-3.21-3.06-6.36-4.61-9.52Zm4.65,.9l-.68,.48c1.36,2.74,2.67,5.5,4.11,8.19,.22,.41,1.02,.5,1.55,.73,.12-.57,.53-1.33,.3-1.68-1.69-2.62-3.51-5.16-5.29-7.72Zm5.5,.75c-.28,.22-.56,.44-.83,.67,1.6,2.11,3.2,4.22,4.8,6.33,.42-.35,.85-.71,1.27-1.06-1.75-1.98-3.49-3.96-5.24-5.94Z"/>
  <path class="cls-1" d="M284.46,235.33c-.47,5.21-.91,10.21-1.4,15.64-6.97-.67-13.57-1.19-19.23-5.15-3.81-2.66-3.46-5.88,.67-8.04,3.75-1.96,11.92-3.03,19.96-2.45Zm-12.23,11.97c.59,.36,1.17,.72,1.76,1.08,1.7-3.59,3.41-7.19,5.11-10.78-.3-.18-.6-.36-.9-.54-1.99,3.41-3.98,6.83-5.97,10.24Zm2.66-10c-4.5,2.36-7.25,6.14-6.53,9.76,2.32-3.46,4.32-6.45,6.53-9.76Zm7.81,.78c-.35-.07-.71-.14-1.06-.2-1.1,3.77-2.2,7.54-3.31,11.32,.63,.17,1.26,.35,1.88,.52,.83-3.88,1.66-7.76,2.48-11.63Zm-19.65,4.38c.29,.34,.59,.68,.88,1.02,3.1-.59,3.57-4.17,6.05-5.47-.22-.25-.43-.5-.65-.75-2.09,1.73-4.19,3.46-6.28,5.2Z"/>
  <path class="cls-1" d="M142.13,283.89v-14.58c5.4,.96,10.55,1.38,15.37,2.87,4.36,1.34,4.44,5.15,.62,7.83-3.13,2.2-10.22,3.98-15.99,3.89Zm1.04-11.09c.53,3.34,1.06,6.67,1.59,10.01,.5-.09,.99-.17,1.49-.26-.28-3.38-.99-6.69-3.08-9.75Zm3.08-.63c1.16,3.26,2.33,6.51,3.49,9.77,.44-.17,.87-.35,1.31-.52-.79-3.43-1.96-6.71-4.8-9.25Zm3.72,.51c1.33,2.68,2.65,5.36,3.98,8.05,.34-.19,.69-.37,1.03-.56-.43-3.2-2.36-5.63-5.01-7.49Z"/>
  <path class="cls-1" d="M128.76,285.13c-5.67-.11-11.16-.19-16.09-3.03-3.06-1.76-2.99-4.86,.14-6.68,5.05-2.93,10.71-3.68,16.66-4.34-.24,4.79-.47,9.22-.71,14.06Zm-2.2-.99c.52-3.63,.99-6.88,1.54-10.72-2.86,4.37-3.52,8.86-1.54,10.72Zm-1.11-10.75c-3.72,3.88-5.16,7.82-3.7,10.32,1.22-3.39,2.35-6.56,3.7-10.32Zm-9.74,8.38c.52,.29,1.03,.57,1.55,.86,1.36-2.69,2.73-5.39,4.09-8.08-.24-.15-.48-.29-.73-.44-1.64,2.56-3.28,5.11-4.92,7.67Z"/>
  <path class="cls-1" d="M322.11,314.98c.89-4.1,1.67-7.67,2.58-11.85,3.69,1.56,7.19,2.76,10.37,4.52,1.32,.73,2.89,2.86,2.67,4.05-.24,1.28-2.34,2.96-3.79,3.13-3.73,.44-7.55,.15-11.83,.15Z"/>
  <path class="cls-1" d="M309.3,313.16c-4-1.96-7.69-3.53-11.09-5.59-1.06-.64-1.94-2.69-1.77-3.93,.14-.99,1.94-2.35,3.12-2.49,4.38-.49,8.81-.54,14.1-.79-2.96,3.75-5.15,6.51-7.34,9.28l1.2,.92c1.31-1.94,2.61-3.88,3.92-5.82,.2,.09,.39,.17,.59,.26-.82,2.45-1.64,4.89-2.73,8.15Zm.35-11.65c-5.03,2.54-7.07,4.78-6.92,7.66,2.27-2.52,4.31-4.77,6.92-7.66Z"/>
  <path class="cls-2" d="M239.79,165.94c-4.81,6.22-7.05,13.51-9.23,20.84-.27,.9-1.33,1.57-2.03,2.34-.07-1-.47-2.11-.17-2.98,2.54-7.45,5.21-14.85,11.43-20.2Z"/>
  <path class="cls-2" d="M245.86,169.19c-1.81,6.16-1.35,12.37-.83,18.59,.06,.77-.55,1.59-.84,2.38-.35-.74-.98-1.47-1.02-2.22-.28-6.42-.45-12.84,2.69-18.76Z"/>
  <path class="cls-2" d="M244.13,165.59c-4.14,7.05-5.72,14.62-6.8,22.37-.13,.94-.88,1.79-1.35,2.68-.32-1-1.13-2.15-.87-2.98,1.91-6.09,3.94-12.15,6.15-18.14,.54-1.47,1.89-2.64,2.87-3.94Z"/>
  <path class="cls-2" d="M233.57,167.7c-3.36,5.74-7.24,12.35-11.31,19.31-.22-.75-.77-1.59-.64-2.3,1.03-5.59,7.85-14.69,11.96-17.01Z"/>
  <path class="cls-2" d="M227.07,169.96c-2.88,4.16-5.92,8.54-8.96,12.93-1.99-2.7,3.74-10.64,8.96-12.93Z"/>
  <path class="cls-2" d="M269.6,162.52c7.67,2.68,19.28,16.61,17.73,21.85-4.9-8.12-9.59-16.42-17.73-21.85Z"/>
  <path class="cls-2" d="M275.36,162.6c5.41,1.47,9.37,5.08,13.08,9,1.7,1.8,3.35,3.68,4.79,5.68,.6,.83,.61,2.07,.89,3.13-.92-.55-2.04-.91-2.71-1.67-3.12-3.55-5.95-7.35-9.2-10.76-1.98-2.08-4.54-3.6-6.84-5.37Z"/>
  <path class="cls-2" d="M283.83,162.96c5.35,1.8,10.32,5.72,14.22,11.07,.32,.44-.02,1.36-.05,2.06-.59-.16-1.37-.12-1.75-.5-4.36-4.36-8.65-8.78-12.42-12.63Z"/>
  <path class="cls-2" d="M269.47,168.22c3.13,2.35,4.76,5.72,6.16,9.22,.64,1.61,1.22,3.25,1.64,4.92,.17,.69-.14,1.5-.23,2.26-.45-.59-1.09-1.12-1.33-1.79-1.11-3.11-1.96-6.31-3.19-9.36-.75-1.86-2.01-3.51-3.05-5.25Z"/>
  <path class="cls-2" d="M274.87,170.64c3,2.55,5.22,6.37,6.36,10.85,.09,.37-.36,.88-.56,1.33-.34-.25-.86-.43-1-.77-1.7-3.95-3.34-7.93-4.8-11.41Z"/>
  <path class="cls-2" d="M166.32,214.47c-3.51,6.2-6.68,11.77-9.87,17.34-.02,.04-.39-.13-1.14-.39,2.51-6.24,5.71-11.9,11.01-16.95Z"/>
  <path class="cls-2" d="M169.47,215.99c-2.38,5.7-4.91,11.73-7.53,18-1.3-3.97,3.45-14.54,7.53-18Z"/>
  <path class="cls-2" d="M150.53,228.51c2.44-5.67,6.15-10.31,11.67-13.73-3.69,4.9-7.25,9.65-10.82,14.39-.28-.22-.56-.44-.85-.66Z"/>
  <path class="cls-2" d="M156.39,216.38c-2.77,3.15-5.44,6.21-8.27,9.43-.42-3.21,3.47-7.49,8.27-9.43Z"/>
  <path class="cls-2" d="M193.91,215.56c4.17,2.17,11.41,13.93,10.35,18.05-3.6-6.28-7.16-12.49-10.35-18.05Z"/>
  <path class="cls-2" d="M209.49,231.42c-3.96-5.45-7.92-10.9-11.4-15.69,3.14,.9,10.83,10.03,11.4,15.69Z"/>
  <path class="cls-2" d="M203.57,216.67c4.56,1.53,10.45,8.31,9.6,11.62-3.29-3.98-6.56-7.94-9.6-11.62Z"/>
  <path class="cls-2" d="M301.56,238.93c.9,3.4,1.86,6.78,2.64,10.21,.11,.47-.69,1.14-1.08,1.72-.4-.55-1.07-1.07-1.16-1.67-.5-3.3-.86-6.62-1.27-9.94,.29-.1,.57-.21,.86-.31Z"/>
  <path class="cls-2" d="M304.78,238.77c1.56,3.17,3.16,6.31,4.61,9.52,.22,.5-.26,1.31-.41,1.98-.58-.51-1.46-.91-1.69-1.54-1.16-3.11-2.15-6.29-3.2-9.44,.23-.17,.46-.35,.69-.52Z"/>
  <path class="cls-2" d="M309.43,239.67c1.78,2.56,3.6,5.1,5.29,7.72,.23,.35-.18,1.11-.3,1.68-.53-.24-1.34-.33-1.55-.73-1.44-2.69-2.76-5.45-4.11-8.19l.68-.48Z"/>
  <path class="cls-2" d="M314.93,240.42c1.75,1.98,3.49,3.96,5.24,5.94-.42,.35-.85,.71-1.27,1.06-1.6-2.11-3.2-4.22-4.8-6.33,.28-.22,.56-.44,.83-.67Z"/>
  <path class="cls-2" d="M272.23,247.3c1.99-3.41,3.98-6.83,5.97-10.24,.3,.18,.6,.36,.9,.54-1.7,3.59-3.41,7.19-5.11,10.78-.59-.36-1.17-.72-1.76-1.08Z"/>
  <path class="cls-2" d="M274.88,237.31c-2.21,3.3-4.21,6.29-6.53,9.76-.72-3.61,2.03-7.4,6.53-9.76Z"/>
  <path class="cls-2" d="M282.7,238.09c-.83,3.88-1.66,7.76-2.48,11.63-.63-.17-1.26-.35-1.88-.52,1.1-3.77,2.2-7.54,3.31-11.32,.35,.07,.71,.14,1.06,.2Z"/>
  <path class="cls-2" d="M263.04,242.47c2.09-1.73,4.19-3.46,6.28-5.2,.22,.25,.43,.5,.65,.75-2.47,1.3-2.95,4.88-6.05,5.47-.29-.34-.59-.68-.88-1.02Z"/>
  <path class="cls-2" d="M143.17,272.8c2.09,3.05,2.8,6.36,3.08,9.75-.5,.09-.99,.17-1.49,.26-.53-3.34-1.06-6.67-1.59-10.01Z"/>
  <path class="cls-2" d="M146.25,272.16c2.84,2.54,4.01,5.83,4.8,9.25-.44,.17-.87,.35-1.31,.52-1.16-3.26-2.33-6.51-3.49-9.77Z"/>
  <path class="cls-2" d="M149.96,272.67c2.65,1.86,4.58,4.28,5.01,7.49-.34,.19-.69,.37-1.03,.56-1.33-2.68-2.65-5.36-3.98-8.05Z"/>
  <path class="cls-2" d="M126.57,284.14c-1.99-1.86-1.33-6.35,1.54-10.72-.55,3.84-1.02,7.09-1.54,10.72Z"/>
  <path class="cls-2" d="M125.46,273.39c-1.35,3.76-2.48,6.93-3.7,10.32-1.46-2.49-.02-6.44,3.7-10.32Z"/>
  <path class="cls-2" d="M115.71,281.77c1.64-2.56,3.28-5.11,4.92-7.67,.24,.15,.48,.29,.73,.44-1.36,2.69-2.73,5.39-4.09,8.08-.52-.29-1.03-.57-1.55-.86Z"/>
  <path class="cls-2" d="M309.65,301.51c-2.61,2.89-4.65,5.14-6.92,7.66-.14-2.88,1.89-5.12,6.92-7.66Z"/>
</svg>