<?xml version="1.0" encoding="UTF-8"?>
<svg xmlns="http://www.w3.org/2000/svg" viewBox="0 0 500 500">
  <defs>
    <style>
      .cls-1 {
        fill: #fff;
      }

      .cls-2 {
        fill: #3e48ad;
      }

      .cls-3 {
        fill: #faa17d;
        stroke: #3e48ad;
        stroke-miterlimit: 10;
        stroke-width: 2px;
      }
    </style>
  </defs>
  <g id="Layer_2" data-name="Layer 2">
    <polygon class="cls-2" points="155.89 280.13 155.36 376.11 284.62 414.51 327.84 398.96 328.03 300.42 287.61 316.27 218.35 255.47 155.89 280.13"/>
  </g>
  <g id="Layer_1" data-name="Layer 1">
    <path class="cls-3" d="M150.39,216.69c41.85,12.02,83.68,23.96,125.44,36.13,5.2,1.52,8.64,.58,12.23-3.52,13.1-14.95,26.53-29.6,39.83-44.38,.72-.8,1.39-1.64,2.77-3.27-8.75,2.74-16.56,5.08-24.28,7.66-4.77,1.59-9.44,3.47-14.1,5.38-4.75,1.94-9.4,2.97-14.64,1.51-4.99-1.4-8.91,1.47-10.1,6.6-.66,2.86-1.06,5.8-1.85,8.63-1.04,3.75-3.22,5.04-6.94,3.99-11.33-3.18-22.62-6.52-33.95-9.7-2.56-.72-3.53-2.06-3.42-4.75,.2-4.87,.06-9.76,.06-15.06-2.39,.46-4.49,1.21-6.59,1.19-3.73-.04-7.53-.22-11.17-.99-3-.63-4.64-2.94-4.57-6.27,.09-3.93-.06-7.85-.04-11.78,0-2.41-.69-3.2-3.35-2.52-6.94,1.77-13.8,2.05-20.3-3.63v29.53c-4.53-1.31-6.16-4.38-7.12-7.8-.93-3.29-1.35-6.73-2.15-10.07-1.38-5.8-4.29-10.33-10.26-12.44-3.4-1.2-3.67-1.9-3.33-6.11,6.3,4.98,13.15,5.36,20.42,3.04,2.22-.71,3.05-1.86,3-4.27-.24-12.26-.31-24.52-.42-36.78-.01-1.29,.11-2.58,.19-4.43,8.56,4.65,16.61,4.59,25.03-.82-.72,5.98,1.64,11.44-2.06,16.56-1.4,1.93-.41,4.26,1.66,5.77,4.84,3.54,16.11,3.44,21.09-.2,2.51-1.84,2.69-4.84,.21-6.84-1.4-1.12-3.09-1.88-5.21-3.14,2.96-3.22,5.81-6.15,8.47-9.25,2.91-3.4,5.35-7.26,8.55-10.34,2.35-2.26,5.59-3.59,8.35-5.28-.32-.11-.86-.28-1.39-.45,.03-.17,.05-.34,.08-.5,1.85,.3,5.13,.25,5.3,.95,.79,3.24,3.63,2.27,5.26,2.75,15.03,4.45,30.15,8.55,45.26,12.74,24.5,6.78,48.99,13.62,73.54,20.24,3.03,.82,4.36,3,5.74,5.06,7.65,11.41,15.13,22.93,22.56,34.49,2.9,4.5,2.47,6.18-2.19,8.9-12.71,7.42-25.49,14.72-38.21,22.12-3.18,1.85-6.43,2.08-9.92,1.08-4.24-1.21-8.51-2.36-12.79-3.41-1.92-.47-3.4-.49-2.72,2.5,.43,1.88-.37,4.01-.38,6.03-.04,21.73-.09,43.45,.05,65.18,.02,3.53-1.23,5.36-4.46,6.57-12.87,4.8-25.71,9.7-38.5,14.71-4.08,1.6-7.37,.67-10.48-2.09-19.3-17.07-38.69-34.04-57.85-51.27-3.65-3.29-6.79-4.07-11.48-2.42-17.71,6.21-35.56,12.01-53.37,17.95-4.82,1.61-5.58,1.06-5.6-4.08-.08-19.62-.14-39.24-.19-58.86,0-.2,.24-.41,.29-.5Zm145.44-21.74c1.93-3.42,1.68-5.3-1.56-6.89-2.25-1.11-4.91-2.2-7.3-2.04-4.69,.31-9.31,1.5-13.96,2.33,2.15-3.17,1.98-5.25-1.12-6.9-2.1-1.12-4.56-2.08-6.88-2.12-4.28-.07-8.57,.59-12.85,.94-.15-4.13-1.25-5.56-5.81-6.96-6.15-1.89-12.05-.87-17.83,1.55,1.79-4.87-.05-7.71-5.32-7.6,0,2.05-.02,4.12,0,6.18,.05,3.64,.62,3.96,3.78,2.23,.54-.29,1.07-.59,1.61-.89-2.76,4.24-1.92,6.96,2.73,8.79,6.11,2.41,12.17,1.65,18.38-.79-.92,3.41,.04,5.75,2.9,6.95,7.05,2.95,13.97,3.15,20.51-1.47-1.83,5.02-1.08,7.25,3.62,8.84,6.68,2.27,13.24,2.14,19.22-2.25-2.46,4.85-1.74,7.58,3.45,8.8,4.26,1,8.91,1.05,13.29,.61,3.1-.31,7.14-1.38,6.94-5.68-.18-3.84-3.86-4.6-6.93-5.47-5.86-1.67-11.37,0-16.85,1.85Zm-28.19,8.18c-2.51,3.38-2.19,5.91,1.4,7.72,6.58,3.33,13.27,3.12,19.66-.5,3.92-2.22,3.68-6.7-.5-8.58-6.99-3.14-13.95-3.33-20.52,1.32,1.96-4.14,1.49-6.24-2.28-8.15-1.81-.92-3.94-1.76-5.9-1.71-4.61,.13-9.2,.81-13.53,1.25,.84-3.11,.13-4.92-3.54-6.48-5.93-2.51-12.01-2.56-17.77,.28-1.68,.83-3.66,3.16-3.63,4.76,.03,1.62,2.09,3.77,3.8,4.65,2.19,1.13,4.91,1.64,7.4,1.65,3.48,0,6.96-.71,10.48-1.12,1.74,5.65,3.83,7.01,10.08,7.86,5.39,.73,10.16-.64,14.84-2.96Z"/>
    <path class="cls-3" d="M150.1,374.59c14.58,4.21,28.57,8.27,42.57,12.29,28.05,8.05,56.12,16.04,84.14,24.17,3.95,1.15,7.61,1.18,11.48-.22,14.28-5.16,28.61-10.18,43.54-15.48,0,3.99,.19,7.72-.13,11.41-.08,.95-1.61,2.17-2.72,2.58-14.41,5.21-28.85,10.35-43.35,15.33-1.6,.55-3.68,.35-5.36-.13-41.74-11.89-83.45-23.85-125.16-35.82-4.64-1.33-5.39-2.62-5.04-7.47,.15-2.18,.03-4.38,.03-6.67Z"/>
    <path class="cls-1" d="M267.64,203.14c-4.68,2.31-9.44,3.69-14.84,2.96-6.25-.85-8.34-2.21-10.08-7.86-3.52,.41-7,1.12-10.48,1.12-2.49,0-5.21-.52-7.4-1.65-1.71-.88-3.77-3.03-3.8-4.65-.03-1.6,1.95-3.93,3.63-4.76,5.76-2.84,11.84-2.79,17.77-.28,3.67,1.55,4.38,3.37,3.54,6.48,4.33-.43,8.93-1.12,13.53-1.25,1.96-.05,4.09,.79,5.9,1.71,3.77,1.92,4.24,4.01,2.28,8.15,0,0-.05,.04-.05,.04Z"/>
    <path class="cls-1" d="M273.1,188.25c-6.54,4.63-13.46,4.43-20.51,1.48-2.85-1.2-3.82-3.54-2.9-6.95-6.21,2.44-12.26,3.2-18.38,.79-4.65-1.83-5.49-4.56-2.73-8.79l-.07,.07c5.78-2.41,11.68-3.43,17.83-1.55,4.56,1.4,5.66,2.83,5.81,6.96,4.28-.35,8.57-1.01,12.85-.94,2.32,.04,4.78,1,6.88,2.12,3.1,1.65,3.27,3.74,1.12,6.9,0,0,.09-.09,.09-.09Z"/>
    <path class="cls-1" d="M267.64,203.14s.06-.04,.05-.04c6.56-4.64,13.52-4.45,20.51-1.31,4.18,1.88,4.42,6.36,.5,8.58-6.39,3.62-13.08,3.82-19.66,.5-3.59-1.81-3.9-4.34-1.4-7.72Z"/>
    <path class="cls-1" d="M295.83,194.95c5.48-1.85,10.99-3.52,16.85-1.85,3.07,.88,6.76,1.63,6.93,5.47,.2,4.29-3.84,5.37-6.94,5.68-4.38,.44-9.03,.38-13.29-.61-5.19-1.21-5.91-3.95-3.45-8.8,0,0-.1,.11-.1,.11Z"/>
    <path class="cls-1" d="M295.83,194.95s.1-.11,.1-.11c-5.98,4.39-12.53,4.52-19.21,2.25-4.7-1.59-5.45-3.82-3.62-8.84,0,0-.09,.09-.09,.09,4.65-.83,9.28-2.02,13.96-2.33,2.39-.16,5.05,.93,7.3,2.04,3.24,1.6,3.49,3.48,1.56,6.89Z"/>
    <path class="cls-1" d="M228.6,174.78c-.54,.3-1.07,.6-1.61,.89-3.16,1.73-3.73,1.4-3.78-2.23-.03-2.06,0-4.13,0-6.18,5.27-.11,7.11,2.73,5.32,7.6,0,0,.07-.07,.07-.07Z"/>
    <line x1="153.58" y1="374.59" x2="153.77" y2="276.05"/>
    <rect class="cls-3" x="104.41" y="323.73" width="98.54" height="3.17" transform="translate(-171.94 478.36) rotate(-89.89)"/>
    <line x1="329.42" y1="398.96" x2="329.61" y2="300.42"/>
    <rect class="cls-3" x="280.25" y="348.11" width="98.54" height="3.17" transform="translate(-20.82 678.53) rotate(-89.89)"/>
  </g>
</svg>